# Blender 5.1.2
# www.blender.org
mtllib Key.mtl
o Cube
v 0.742015 0.250000 -0.498744
v 0.911898 -0.250000 -0.733172
v 1.197243 0.250000 0.890710
v 1.479739 -0.250000 1.000000
v -0.742015 0.250000 -0.498744
v -0.911898 -0.250000 -0.733172
v -1.197243 0.250000 0.890710
v -1.479739 -0.250000 1.000000
v 0.000000 -0.250000 -0.733172
v 0.000000 0.250000 1.569716
v 0.000000 -0.250000 1.839222
v 0.000000 0.250000 -0.498744
v 0.608283 -0.000001 -3.723996
v 0.173657 -0.000001 -3.723996
v -0.000000 0.221457 -6.103523
v -0.000000 0.221458 -0.660606
v 0.156594 0.156594 -6.103523
v 0.156594 0.156594 -0.660606
v 0.221458 -0.000001 -6.103523
v 0.221458 -0.000000 -0.660606
v 0.156594 -0.156595 -6.103523
v 0.156594 -0.156595 -0.660606
v -0.000000 -0.221459 -6.103523
v -0.000000 -0.221458 -0.660606
v -0.156595 -0.156595 -6.103523
v -0.156595 -0.156595 -0.660606
v -0.221458 -0.000001 -6.103523
v -0.221458 -0.000000 -0.660606
v -0.156595 0.156594 -6.103523
v -0.156595 0.156594 -0.660606
v 1.454908 -0.000001 -5.495487
v 1.454908 -0.000001 -6.085985
v 0.173657 -0.000001 -6.085985
v 0.608283 -0.000001 -6.085985
v 0.173657 -0.000001 -4.314493
v 0.173657 -0.000001 -4.904990
v 0.173657 -0.000001 -5.495487
v 0.608283 -0.000001 -5.435813
v 0.608283 -0.000001 -4.964664
v 0.608283 -0.000001 -4.314493
v 1.120196 -0.000001 -5.379399
v 1.120196 -0.000001 -5.021079
v 1.336774 -0.000001 -5.421492
v 1.336774 -0.000001 -4.978986
v 1.349900 -0.000001 -4.038933
v 1.454908 0.094433 -6.085985
v 0.608283 0.094433 -6.085985
v 0.173657 0.094433 -5.495487
v 0.608283 0.094433 -5.435813
v 0.173657 0.094434 -3.723996
v 0.608283 0.094434 -3.723996
v 0.173657 0.094434 -4.904990
v 0.608283 0.094434 -4.964664
v 0.173657 0.094433 -6.085985
v 0.173657 0.094434 -4.314493
v 0.608283 0.094434 -4.314493
v 1.454908 0.094433 -5.495487
v 1.120196 0.094434 -5.021079
v 1.120196 0.094434 -5.379399
v 1.336774 0.094434 -4.978986
v 1.336774 0.094433 -5.421492
v 1.349900 0.094434 -4.038933
v 0.000000 0.250000 1.839222
v -1.479739 0.250000 1.000000
v 0.911898 0.250000 -0.733172
v 1.479739 0.250000 1.000000
v -0.911898 0.250000 -0.733172
v 0.000000 0.250000 -0.733172
v 0.000000 0.101959 -0.498744
v 0.000000 0.101959 1.569716
v -1.197243 0.101959 0.890710
v 0.742015 0.101959 -0.498744
v 1.197243 0.101959 0.890710
v -0.742015 0.101959 -0.498744
vn -0.9503 -0.0000 0.3113
vn -0.4933 -0.0000 0.8698
vn -0.9503 -0.0000 -0.3113
vn -0.0000 -1.0000 -0.0000
vn 0.9503 -0.0000 -0.3113
vn -0.0000 -0.0000 -1.0000
vn 0.4933 -0.0000 0.8698
vn -0.0000 -0.0000 1.0000
vn 0.3827 0.9239 -0.0000
vn 0.9239 0.3827 -0.0000
vn 0.9239 -0.3827 -0.0000
vn 0.3827 -0.9239 -0.0000
vn -0.3827 -0.9239 -0.0000
vn -0.9239 -0.3827 -0.0000
vn -0.9239 0.3827 -0.0000
vn -0.3827 0.9239 -0.0000
vn -0.0000 1.0000 -0.0000
vn -1.0000 -0.0000 -0.0000
vn 0.1095 -0.0000 0.9940
vn 0.1095 -0.0000 -0.9940
vn 0.0703 -0.0000 0.9975
vn 1.0000 -0.0000 -0.0000
vn -0.1908 -0.0000 0.9816
vn -0.1908 -0.0000 -0.9816
vn 0.3909 -0.0000 0.9204
vn 0.3483 -0.0000 -0.9374
vn -0.4933 -0.0000 -0.8698
vn 0.9503 -0.0000 0.3113
vn 0.4933 -0.0000 -0.8698
vt 0.293582 0.755291
vt 0.314594 0.952500
vt 0.293582 0.952500
vt 0.728252 0.634602
vt 0.657286 0.839768
vt 0.657286 0.634602
vt 0.908022 0.749880
vt 0.978988 0.503886
vt 0.978988 0.749880
vt 0.365107 0.210024
vt 0.119113 0.420047
vt 0.000000 0.210024
vt 0.908022 0.503886
vt 0.978988 0.257892
vt 0.908022 0.128946
vt 0.978988 0.000000
vt 0.978988 0.128946
vt 0.908022 0.257892
vt 0.978988 0.257892
vt 0.119113 0.000000
vt 0.365107 0.080595
vt 0.728252 0.420047
vt 0.657286 0.420047
vt 0.908022 0.855114
vt 0.929034 0.960349
vt 0.908022 0.960349
vt 0.796892 0.772529
vt 0.774666 0.000000
vt 0.796892 0.000000
vt 0.863570 0.772529
vt 0.841344 0.000000
vt 0.863570 0.000000
vt 0.841344 0.772529
vt 0.819118 0.000000
vt 0.774666 0.772529
vt 0.752440 0.000000
vt 0.774666 0.000000
vt 0.752440 0.772529
vt 0.730214 0.000000
vt 0.863570 0.000000
vt 0.885796 0.772528
vt 0.863570 0.772528
vt 0.314608 0.796354
vt 0.331585 0.755291
vt 0.372635 0.772300
vt 0.355270 0.420047
vt 0.293582 0.503858
vt 0.293582 0.420047
vt 0.885796 0.000000
vt 0.908022 0.772528
vt 0.819118 0.772529
vt 0.819118 0.000000
vt 0.413586 0.813338
vt 0.372648 0.796445
vt 0.389605 0.755354
vt 0.355270 0.755291
vt 0.293582 0.671480
vt 0.355270 0.671480
vt 0.427927 0.520335
vt 0.355270 0.579199
vt 0.355270 0.512328
vt 0.293582 0.587669
vt 0.475434 0.503858
vt 0.458667 0.514360
vt 0.427927 0.571192
vt 0.460530 0.710591
vt 0.595598 0.420047
vt 0.657286 0.503858
vt 0.595598 0.512328
vt 0.657286 0.671480
vt 0.595598 0.755291
vt 0.595598 0.671480
vt 0.595598 0.579199
vt 0.522941 0.520335
vt 0.657286 0.587669
vt 0.475434 0.503858
vt 0.475434 0.420047
vt 0.522941 0.571192
vt 0.492201 0.514360
vt 0.490338 0.710591
vt 0.992391 0.422400
vt 0.978988 0.338590
vt 0.992391 0.338590
vt 0.430542 0.816749
vt 0.443946 0.936465
vt 0.430542 0.936465
vt 0.497559 0.828207
vt 0.484156 0.755291
vt 0.497559 0.755291
vt 0.457349 0.816931
vt 0.443946 0.755291
vt 0.457349 0.755291
vt 0.510962 0.858478
vt 0.497559 0.785401
vt 0.510962 0.785401
vt 0.457349 0.755291
vt 0.470752 0.875695
vt 0.457349 0.875695
vt 0.430542 0.755291
vt 0.443946 0.816749
vt 0.551172 0.818097
vt 0.537769 0.755291
vt 0.551172 0.755291
vt 0.537769 0.839102
vt 0.524366 0.755291
vt 0.992391 0.506212
vt 0.978988 0.422400
vt 0.497559 0.858688
vt 0.484156 0.828207
vt 0.497559 0.755291
vt 0.510962 0.755291
vt 0.992391 0.673833
vt 0.978988 0.590023
vt 0.992391 0.590023
vt 0.978988 0.506212
vt 0.457349 0.923870
vt 0.443946 0.816931
vt 0.524366 0.847572
vt 0.484156 0.863532
vt 0.470752 0.755291
vt 0.484156 0.755291
vt 0.499732 0.379952
vt 0.365107 0.210024
vt 0.403359 0.210024
vt 0.499732 0.040095
vt 0.730214 0.080595
vt 0.696941 0.104707
vt 0.730214 0.339452
vt 0.484220 0.420047
vt 0.730214 0.210024
vt 0.696941 0.210024
vt 0.484220 0.000000
vt 0.696941 0.315340
vt 0.293582 0.589975
vt 0.096373 0.759903
vt 0.000000 0.589975
vt 0.096373 0.420047
vt 0.293582 0.484659
vt 0.978988 0.000000
vt 1.000000 0.160982
vt 0.978988 0.160982
vt 0.929034 0.749880
vt 0.950046 0.947089
vt 0.929034 0.947089
vt 1.000000 0.338590
vt 0.908022 0.749880
vt 0.929034 0.855114
vt 0.314594 0.755291
vt 0.728252 0.839768
vt 0.908022 0.503886
vt 0.365107 0.339452
vt 0.908022 0.257892
vt 0.908022 0.000000
vt 0.774666 0.772529
vt 0.819118 0.772529
vt 0.730214 0.772529
vt 0.372648 0.796354
vt 0.355658 0.813363
vt 0.331617 0.813363
vt 0.314594 0.772300
vt 0.355626 0.755291
vt 0.413586 0.755291
vt 0.430542 0.772248
vt 0.430542 0.796292
vt 0.389605 0.813402
vt 0.372648 0.772401
vt 0.293582 0.755291
vt 0.475434 0.420047
vt 0.458667 0.577167
vt 0.657286 0.420047
vt 0.657286 0.755291
vt 0.492201 0.577167
vt 0.497559 0.858478
vt 0.470752 0.755291
vt 0.443946 0.755291
vt 0.537769 0.818097
vt 0.524366 0.839102
vt 0.484156 0.858688
vt 0.978988 0.673833
vt 0.443946 0.923870
vt 0.510962 0.847572
vt 0.470752 0.863532
vt 0.293582 0.695292
vt 1.000000 0.000000
vt 0.950046 0.749880
s 1
f 1/1/1 73/2/1 3/3/1
f 63/4/2 8/5/2 11/6/2
f 64/7/3 6/8/3 8/9/3
f 9/10/4 4/11/4 11/12/4
f 65/13/5 4/14/5 2/8/5
f 68/15/6 2/16/6 9/17/6
f 67/18/6 9/17/6 6/19/6
f 9/10/4 8/20/4 6/21/4
f 66/22/7 11/6/7 4/23/7
f 12/24/8 72/25/8 1/26/8
f 16/27/9 17/28/9 15/29/9
f 18/30/10 19/31/10 17/32/10
f 20/33/11 21/34/11 19/31/11
f 22/35/12 23/36/12 21/37/12
f 24/38/13 25/39/13 23/36/13
f 26/40/14 27/41/14 25/42/14
f 28/43/8 24/44/8 20/45/8
f 34/46/4 37/47/4 33/48/4
f 28/49/15 29/50/15 27/41/15
f 30/51/16 15/29/16 29/52/16
f 21/53/6 25/54/6 29/55/6
f 13/56/4 35/57/4 40/58/4
f 41/59/4 39/60/4 38/61/4
f 40/58/4 36/62/4 39/60/4
f 39/60/4 37/47/4 38/61/4
f 34/46/4 31/63/4 38/61/4
f 43/64/4 42/65/4 41/59/4
f 40/58/4 45/66/4 13/56/4
f 47/67/17 48/68/17 49/69/17
f 55/70/17 51/71/17 56/72/17
f 53/73/17 59/74/17 49/69/17
f 52/75/17 56/72/17 53/73/17
f 48/68/17 53/73/17 49/69/17
f 47/67/17 57/76/17 46/77/17
f 58/78/17 61/79/17 59/74/17
f 56/72/17 51/71/17 62/80/17
f 37/81/18 54/82/18 33/83/18
f 34/84/6 46/85/6 32/86/6
f 42/87/19 53/88/19 39/89/19
f 13/90/8 50/91/8 14/92/8
f 38/93/20 59/94/20 41/95/20
f 31/96/21 49/97/21 38/98/21
f 33/99/6 47/100/6 34/84/6
f 43/101/22 60/102/22 44/103/22
f 32/104/22 57/105/22 31/102/22
f 36/106/18 48/107/18 37/81/18
f 44/108/23 58/109/23 42/87/23
f 41/95/24 61/110/24 43/111/24
f 14/112/18 55/113/18 35/114/18
f 35/114/18 52/115/18 36/106/18
f 45/116/25 51/117/25 13/90/25
f 39/118/22 56/111/22 40/105/22
f 40/119/26 62/120/26 45/121/26
f 7/122/17 63/123/17 10/124/17
f 3/125/17 65/126/17 1/127/17
f 7/122/17 67/128/17 64/129/17
f 1/127/17 68/130/17 12/131/17
f 3/125/17 63/123/17 66/132/17
f 5/133/17 68/130/17 67/128/17
f 69/134/17 71/135/17 70/136/17
f 69/134/17 73/137/17 72/138/17
f 3/139/27 70/140/27 10/141/27
f 7/142/28 74/143/28 5/144/28
f 10/141/29 71/145/29 7/82/29
f 5/146/8 69/147/8 12/24/8
f 1/1/1 72/148/1 73/2/1
f 63/4/2 64/149/2 8/5/2
f 64/7/3 67/150/3 6/8/3
f 9/10/4 2/151/4 4/11/4
f 65/13/5 66/152/5 4/14/5
f 68/15/6 65/153/6 2/16/6
f 67/18/6 68/15/6 9/17/6
f 9/10/4 11/12/4 8/20/4
f 66/22/7 63/4/7 11/6/7
f 12/24/8 69/147/8 72/25/8
f 16/27/9 18/154/9 17/28/9
f 18/30/10 20/33/10 19/31/10
f 20/33/11 22/155/11 21/34/11
f 22/35/12 24/38/12 23/36/12
f 24/38/13 26/156/13 25/39/13
f 26/40/14 28/49/14 27/41/14
f 20/45/8 18/157/8 16/158/8
f 16/158/8 30/159/8 28/43/8
f 28/43/8 26/160/8 24/44/8
f 24/44/8 22/161/8 20/45/8
f 20/45/8 16/158/8 28/43/8
f 34/46/4 38/61/4 37/47/4
f 28/49/15 30/153/15 29/50/15
f 30/51/16 16/27/16 15/29/16
f 29/55/6 15/162/6 17/163/6
f 17/163/6 19/164/6 21/53/6
f 21/53/6 23/165/6 25/54/6
f 25/54/6 27/166/6 29/55/6
f 29/55/6 17/163/6 21/53/6
f 13/56/4 14/167/4 35/57/4
f 41/59/4 42/65/4 39/60/4
f 40/58/4 35/57/4 36/62/4
f 39/60/4 36/62/4 37/47/4
f 34/46/4 32/168/4 31/63/4
f 43/64/4 44/169/4 42/65/4
f 47/67/17 54/170/17 48/68/17
f 55/70/17 50/171/17 51/71/17
f 53/73/17 58/78/17 59/74/17
f 52/75/17 55/70/17 56/72/17
f 48/68/17 52/75/17 53/73/17
f 47/67/17 49/69/17 57/76/17
f 58/78/17 60/172/17 61/79/17
f 37/81/18 48/107/18 54/82/18
f 34/84/6 47/100/6 46/85/6
f 42/87/19 58/109/19 53/88/19
f 13/90/8 51/117/8 50/91/8
f 38/93/20 49/173/20 59/94/20
f 31/96/21 57/174/21 49/97/21
f 33/99/6 54/175/6 47/100/6
f 43/101/22 61/176/22 60/102/22
f 32/104/22 46/177/22 57/105/22
f 36/106/18 52/115/18 48/107/18
f 44/108/23 60/178/23 58/109/23
f 41/95/24 59/94/24 61/110/24
f 14/112/18 50/179/18 55/113/18
f 35/114/18 55/113/18 52/115/18
f 45/116/25 62/180/25 51/117/25
f 39/118/22 53/181/22 56/111/22
f 40/119/26 56/182/26 62/120/26
f 7/122/17 64/129/17 63/123/17
f 3/125/17 66/132/17 65/126/17
f 7/122/17 5/133/17 67/128/17
f 1/127/17 65/126/17 68/130/17
f 3/125/17 10/124/17 63/123/17
f 5/133/17 12/131/17 68/130/17
f 69/134/17 74/183/17 71/135/17
f 69/134/17 70/136/17 73/137/17
f 3/139/27 73/184/27 70/140/27
f 7/142/28 71/185/28 74/143/28
f 10/141/29 70/140/29 71/145/29
f 5/146/8 74/142/8 69/147/8
