# Blender 5.2.0 LTS
# www.blender.org
o Map
v -21.092100 -21.092100 -0.000000
v -21.092100 -21.092100 23.588823
v -21.092100 21.092100 -0.000000
v -21.092100 21.092100 23.588823
v 21.092100 -21.092100 -0.000000
v 21.092100 -21.092100 23.588823
v 21.092100 21.092100 -0.000000
v 21.092100 21.092100 23.588823
v 1.422358 21.092100 0.000000
v -1.422358 21.092100 0.000000
v -1.422358 21.092100 23.588823
v 1.422358 21.092100 23.588823
v -1.422358 -21.092100 0.000000
v 1.422358 -21.092100 0.000000
v 1.422358 -21.092100 23.588823
v -1.422358 -21.092100 23.588823
v -21.092100 -21.092100 5.511408
v -21.092100 21.092100 5.511408
v 21.092100 21.092100 5.511408
v 21.092100 -21.092100 5.511408
v 1.422358 -21.092100 5.511408
v -1.422358 -21.092100 5.511408
v -1.422358 21.092100 5.511408
v 1.422358 21.092100 5.511408
v -21.092100 1.438847 0.000000
v -21.092100 -1.438847 0.000000
v -21.092100 -1.438847 23.588823
v -21.092100 1.438847 23.588823
v 21.092100 -1.438847 0.000000
v 21.092100 1.438847 0.000000
v 21.092100 1.438847 23.588823
v 21.092100 -1.438847 23.588823
v 1.422358 -1.438847 23.588823
v 1.422358 1.438847 23.588823
v -1.422358 -1.438847 23.588823
v -1.422358 1.438847 23.588823
v -1.422358 -1.438847 0.000000
v -1.422358 1.438847 0.000000
v 1.422358 -1.438847 0.000000
v 1.422358 1.438847 0.000000
v 21.092100 -1.438847 5.511408
v 21.092100 1.438847 5.511408
v -21.092100 1.438847 5.511408
v -21.092100 -1.438847 5.511408
vn 1.0000 -0.0000 -0.0000
vn -0.0000 -1.0000 -0.0000
vn -1.0000 -0.0000 -0.0000
vn -0.0000 1.0000 -0.0000
vn -0.0000 -0.0000 1.0000
vn -0.0000 -0.0000 -1.0000
vt 0.433411 0.250000
vt 0.625000 0.166667
vt 0.433411 0.166667
vt 0.433411 0.500000
vt 0.625000 0.416667
vt 0.433411 0.416667
vt 0.433411 0.750000
vt 0.625000 0.666667
vt 0.433411 0.666667
vt 0.433411 1.000000
vt 0.625000 0.916667
vt 0.433411 0.916667
vt 0.291667 0.750000
vt 0.375000 0.666667
vt 0.291667 0.666667
vt 0.791667 0.750000
vt 0.875000 0.666667
vt 0.791667 0.666667
vt 0.625000 0.750000
vt 0.708333 0.666667
vt 0.708333 0.750000
vt 0.125000 0.750000
vt 0.208333 0.666667
vt 0.125000 0.666667
vt 0.208333 0.750000
vt 0.433411 0.833333
vt 0.625000 0.833333
vt 0.433411 0.333333
vt 0.625000 0.250000
vt 0.625000 0.333333
vt 0.375000 0.083333
vt 0.433411 0.000000
vt 0.375000 0.000000
vt 0.375000 0.333333
vt 0.375000 0.250000
vt 0.375000 0.916667
vt 0.375000 0.833333
vt 0.375000 0.750000
vt 0.375000 1.000000
vt 0.375000 0.500000
vt 0.375000 0.416667
vt 0.375000 0.166667
vt 0.375000 0.583333
vt 0.433411 0.583333
vt 0.208333 0.583333
vt 0.291667 0.500000
vt 0.208333 0.500000
vt 0.291667 0.583333
vt 0.125000 0.583333
vt 0.125000 0.500000
vt 0.708333 0.583333
vt 0.791667 0.500000
vt 0.708333 0.500000
vt 0.791667 0.583333
vt 0.625000 0.583333
vt 0.625000 0.500000
vt 0.875000 0.500000
vt 0.875000 0.583333
vt 0.433411 0.083333
vt 0.625000 0.000000
vt 0.625000 0.083333
vt 0.625000 1.000000
vt 0.875000 0.750000
s 0
f 18/1/1 28/2/1 43/3/1
f 19/4/2 12/5/2 24/6/2
f 20/7/3 32/8/3 41/9/3
f 17/10/4 16/11/4 22/12/4
f 14/13/5 29/14/5 39/15/5
f 16/16/6 27/17/6 35/18/6
f 6/19/6 33/20/6 32/8/6
f 15/21/6 35/18/6 33/20/6
f 1/22/5 37/23/5 26/24/5
f 13/25/5 39/15/5 37/23/5
f 21/26/4 6/19/4 20/7/4
f 22/12/4 15/27/4 21/26/4
f 23/28/2 4/29/2 18/1/2
f 24/6/2 11/30/2 23/28/2
f 26/31/1 17/32/1 1/33/1
f 10/34/2 18/1/2 3/35/2
f 13/36/4 21/26/4 14/37/4
f 14/37/4 20/7/4 5/38/4
f 1/39/4 22/12/4 13/36/4
f 5/38/3 41/9/3 29/14/3
f 7/40/2 24/6/2 9/41/2
f 3/35/1 43/3/1 25/42/1
f 30/43/3 19/4/3 7/40/3
f 29/14/3 42/44/3 30/43/3
f 38/45/5 9/46/5 10/47/5
f 37/23/5 40/48/5 38/45/5
f 25/49/5 10/47/5 3/50/5
f 26/24/5 38/45/5 25/49/5
f 34/51/6 11/52/6 12/53/6
f 33/20/6 36/54/6 34/51/6
f 31/55/6 12/53/6 8/56/6
f 32/8/6 34/51/6 31/55/6
f 36/54/6 4/57/6 11/52/6
f 35/18/6 28/58/6 36/54/6
f 40/48/5 7/40/5 9/46/5
f 39/15/5 30/43/5 40/48/5
f 42/44/3 8/56/3 19/4/3
f 41/9/3 31/55/3 42/44/3
f 44/59/1 2/60/1 17/32/1
f 43/3/1 27/61/1 44/59/1
f 25/42/1 44/59/1 26/31/1
f 18/1/1 4/29/1 28/2/1
f 19/4/2 8/56/2 12/5/2
f 20/7/3 6/19/3 32/8/3
f 17/10/4 2/62/4 16/11/4
f 14/13/5 5/38/5 29/14/5
f 16/16/6 2/63/6 27/17/6
f 6/19/6 15/21/6 33/20/6
f 15/21/6 16/16/6 35/18/6
f 1/22/5 13/25/5 37/23/5
f 13/25/5 14/13/5 39/15/5
f 21/26/4 15/27/4 6/19/4
f 22/12/4 16/11/4 15/27/4
f 23/28/2 11/30/2 4/29/2
f 24/6/2 12/5/2 11/30/2
f 26/31/1 44/59/1 17/32/1
f 10/34/2 23/28/2 18/1/2
f 13/36/4 22/12/4 21/26/4
f 14/37/4 21/26/4 20/7/4
f 1/39/4 17/10/4 22/12/4
f 5/38/3 20/7/3 41/9/3
f 7/40/2 19/4/2 24/6/2
f 3/35/1 18/1/1 43/3/1
f 30/43/3 42/44/3 19/4/3
f 29/14/3 41/9/3 42/44/3
f 38/45/5 40/48/5 9/46/5
f 37/23/5 39/15/5 40/48/5
f 25/49/5 38/45/5 10/47/5
f 26/24/5 37/23/5 38/45/5
f 34/51/6 36/54/6 11/52/6
f 33/20/6 35/18/6 36/54/6
f 31/55/6 34/51/6 12/53/6
f 32/8/6 33/20/6 34/51/6
f 36/54/6 28/58/6 4/57/6
f 35/18/6 27/17/6 28/58/6
f 40/48/5 30/43/5 7/40/5
f 39/15/5 29/14/5 30/43/5
f 42/44/3 31/55/3 8/56/3
f 41/9/3 32/8/3 31/55/3
f 44/59/1 27/61/1 2/60/1
f 43/3/1 28/2/1 27/61/1
f 25/42/1 43/3/1 44/59/1
