# Blender 5.2.0 LTS
# www.blender.org
o Floor
v -25.000000 -10.000000 0.000000
v 25.000000 -10.000000 0.000000
v -25.000000 10.000000 0.000000
v 25.000000 10.000000 0.000000
v -25.000000 -10.000000 19.999998
v 25.000000 -10.000000 19.999998
v -25.000000 10.000000 19.999998
v 25.000000 10.000000 19.999998
vn -0.0000 -0.0000 1.0000
vn -1.0000 -0.0000 -0.0000
vn 1.0000 -0.0000 -0.0000
vt 1.000000 0.000000
vt 0.000000 1.000000
vt 0.000000 0.000000
vt 1.000000 1.000000
s 0
f 2/1/1 3/2/1 1/3/1
f 2/1/2 8/4/2 4/4/2
f 3/2/3 5/3/3 1/3/3
f 2/1/1 4/4/1 3/2/1
f 2/1/2 6/1/2 8/4/2
f 3/2/3 7/2/3 5/3/3
o Cube
v 23.000000 -4.000000 0.000000
v 23.000000 -4.000000 14.000000
v 23.000000 4.000000 0.000000
v 23.000000 4.000000 14.000000
v 25.000000 -4.000000 0.000000
v 25.000000 -4.000000 14.000000
v 25.000000 4.000000 0.000000
v 25.000000 4.000000 14.000000
vn -1.0000 -0.0000 -0.0000
vn -0.0000 1.0000 -0.0000
vn 1.0000 -0.0000 -0.0000
vn -0.0000 -1.0000 -0.0000
vn -0.0000 -0.0000 -1.0000
vn -0.0000 -0.0000 1.0000
vt 0.625000 0.000000
vt 0.375000 0.250000
vt 0.375000 0.000000
vt 0.625000 0.250000
vt 0.375000 0.500000
vt 0.625000 0.500000
vt 0.375000 0.750000
vt 0.625000 0.750000
vt 0.375000 1.000000
vt 0.125000 0.750000
vt 0.125000 0.500000
vt 0.875000 0.500000
vt 0.625000 1.000000
vt 0.875000 0.750000
s 0
f 10/5/4 11/6/4 9/7/4
f 12/8/5 15/9/5 11/6/5
f 16/10/6 13/11/6 15/9/6
f 14/12/7 9/13/7 13/11/7
f 15/9/8 9/14/8 11/15/8
f 12/16/9 14/12/9 16/10/9
f 10/5/4 12/8/4 11/6/4
f 12/8/5 16/10/5 15/9/5
f 16/10/6 14/12/6 13/11/6
f 14/12/7 10/17/7 9/13/7
f 15/9/8 13/11/8 9/14/8
f 12/16/9 10/18/9 14/12/9
o Player
v 1.000000 0.000000 4.720000
v 1.000000 0.000000 0.000000
v -1.000000 0.000000 4.720000
v -1.000000 0.000000 0.000000
vn -0.0000 -1.0000 -0.0000
vt 0.000000 1.000000
vt 1.000000 0.000000
vt 0.000000 0.000000
vt 1.000000 1.000000
s 0
f 19/19/10 18/20/10 17/21/10
f 19/19/10 20/22/10 18/20/10
