# Blender 5.2.0 LTS
# www.blender.org
o Floor
v -33.191700 -9.999999 -0.000000
v 53.644363 -9.999999 -0.000000
v -33.191700 9.999999 -0.000000
v 53.644363 9.999999 -0.000000
v -33.191700 9.999999 -23.877399
v -33.191700 -9.999999 -23.877399
v 53.644363 -9.999999 -23.877377
v 53.644363 9.999999 -23.877377
v -99.724182 9.999999 42.702618
v -99.724182 -9.999999 42.702618
v -99.724182 9.999999 -23.877399
v -99.724182 -9.999999 -23.877399
v -78.098938 -9.999999 23.655895
v -50.661720 -9.999999 6.948201
v -50.436962 -9.999999 -23.877399
v -78.098938 -9.999999 -23.877396
v -50.436962 9.999999 -23.877399
v -78.098938 9.999999 -23.877396
v -78.098938 9.999999 23.655895
v -50.661720 9.999999 6.948201
v 67.623764 -9.999999 -0.000000
v 67.623764 9.999999 -0.000000
v 67.623764 -9.999999 -23.877377
v 67.623764 9.999999 -23.877377
v 80.418472 -9.999999 -0.000000
v 80.418472 9.999999 -0.000000
v 80.418472 -9.999999 -23.877377
v 80.418472 9.999999 -23.877377
v 96.056450 -9.999999 -0.000000
v 96.056450 9.999999 -0.000000
v 96.056450 -9.999999 -23.877377
v 96.056450 9.999999 -23.877377
v 215.743988 -9.999999 -0.000000
v 215.743988 9.999999 -0.000000
v 215.743988 -9.999999 -23.877377
v 215.743988 9.999999 -23.877377
v 53.644363 -9.999999 10.425319
v 53.644363 9.999999 10.425319
v 67.623764 -9.999999 10.425319
v 67.623764 9.999999 10.425319
v 80.418472 -9.999999 10.425319
v 80.418472 9.999999 10.425319
v 96.056450 -9.999999 10.425319
v 96.056450 9.999999 10.425319
v 191.972992 -9.999999 10.425319
v 191.972992 9.999999 10.425319
v 67.623764 -9.999999 21.324516
v 67.623764 9.999999 21.324516
v 80.418472 -9.999999 21.324516
v 80.418472 9.999999 21.324516
v 96.056450 -9.999999 21.324516
v 96.056450 9.999999 21.324516
v 177.485306 -9.999999 21.324516
v 177.485306 9.999999 21.324516
v 80.418472 -9.999999 31.504000
v 80.418472 9.999999 31.504000
v 96.056450 -9.999999 31.504000
v 96.056450 9.999999 31.504000
v 165.140289 -9.999999 31.504000
v 165.140289 9.999999 31.504000
v 96.056450 -9.999999 39.617180
v 96.056450 9.999999 39.617180
v 156.610489 -9.999999 39.617180
v 156.610489 9.999999 39.617180
v 366.235260 -9.999999 -0.000000
v 366.235260 9.999999 -0.000000
v 366.235260 -9.999999 -23.877377
v 366.235260 9.999999 -23.877377
v 330.564972 4.278616 13.838665
v 330.564972 4.278616 -0.000003
v 330.564972 -4.278616 13.838665
v 330.564972 -4.278616 -0.000003
v 332.629242 -4.278616 13.838665
v 332.629242 4.278616 13.838665
v 332.629242 4.278616 -0.000003
v 332.629242 -4.278616 -0.000003
v 36.617985 -9.999999 30.201063
v 36.617985 9.999995 30.201063
v 61.614407 -9.999999 30.201063
v 61.614407 9.999995 30.201063
v 36.617985 -9.999999 21.480391
v 36.617985 9.999995 21.480391
v 61.614407 -9.999999 21.480391
v 61.614407 9.999995 21.480391
vn -0.0000 -0.0000 1.0000
vn -0.0000 -0.0000 -1.0000
vn -0.0000 1.0000 -0.0000
vn -0.0000 -1.0000 -0.0000
vn -1.0000 -0.0000 -0.0000
vn 0.5201 -0.0000 0.8541
vn 0.6610 -0.0000 0.7504
vn 0.3696 -0.0000 0.9292
vn 0.4016 -0.0000 0.9158
vn 0.6362 -0.0000 0.7715
vn 0.6012 -0.0000 0.7991
vn 0.6892 -0.0000 0.7246
vn 1.0000 -0.0000 -0.0000
vt 1.000000 0.000000
vt 0.000000 1.000000
vt 0.000000 0.000000
vt 1.000000 1.000000
s 0
f 2/1/1 3/2/1 1/3/1
f 5/2/2 7/1/2 6/3/2
f 8/4/3 3/2/3 4/4/3
f 1/3/4 7/1/4 2/1/4
f 22/4/3 42/4/3 26/4/3
f 9/2/5 12/3/5 10/3/5
f 18/2/3 20/2/3 17/2/3
f 13/3/6 20/2/6 19/2/6
f 18/2/2 15/3/2 16/3/2
f 16/3/4 14/3/4 13/3/4
f 19/2/7 10/3/7 13/3/7
f 1/3/4 15/3/4 6/3/4
f 13/3/4 12/3/4 16/3/4
f 3/2/8 14/3/8 1/3/8
f 16/3/2 11/2/2 18/2/2
f 6/3/2 17/2/2 5/2/2
f 19/2/3 11/2/3 9/2/3
f 3/2/3 17/2/3 20/2/3
f 24/4/2 27/1/2 23/1/2
f 7/1/4 21/1/4 2/1/4
f 4/4/3 24/4/3 8/4/3
f 8/4/2 23/1/2 7/1/2
f 26/4/3 32/4/3 28/4/3
f 22/4/3 28/4/3 24/4/3
f 30/4/3 46/4/3 34/4/3
f 23/1/4 25/1/4 21/1/4
f 31/1/4 33/1/4 29/1/4
f 34/4/9 45/1/9 33/1/9
f 27/1/4 29/1/4 25/1/4
f 28/4/2 31/1/2 27/1/2
f 34/4/3 68/4/3 36/4/3
f 32/4/2 35/1/2 31/1/2
f 30/4/3 36/4/3 32/4/3
f 2/1/5 38/4/5 4/4/5
f 37/1/1 40/4/1 38/4/1
f 40/4/3 50/4/3 42/4/3
f 43/1/4 49/1/4 41/1/4
f 43/1/4 53/1/4 51/1/4
f 21/1/4 37/1/4 2/1/4
f 25/1/4 39/1/4 21/1/4
f 4/4/3 40/4/3 22/4/3
f 29/1/4 41/1/4 25/1/4
f 29/1/4 45/1/4 43/1/4
f 26/4/3 44/4/3 30/4/3
f 47/1/1 50/4/1 48/4/1
f 54/4/10 59/1/10 53/1/10
f 52/4/3 60/4/3 54/4/3
f 44/4/3 54/4/3 46/4/3
f 39/1/5 48/4/5 40/4/5
f 46/4/11 53/1/11 45/1/11
f 42/4/3 52/4/3 44/4/3
f 41/1/4 47/1/4 39/1/4
f 55/1/1 58/4/1 56/4/1
f 58/4/3 64/4/3 60/4/3
f 50/4/3 58/4/3 52/4/3
f 49/1/5 56/4/5 50/4/5
f 51/1/4 59/1/4 57/1/4
f 51/1/4 55/1/4 49/1/4
f 61/1/1 64/4/1 62/4/1
f 60/4/12 63/1/12 59/1/12
f 57/1/4 63/1/4 61/1/4
f 57/1/5 62/4/5 58/4/5
f 65/1/13 68/4/13 66/4/13
f 33/1/1 66/4/1 34/4/1
f 35/1/4 65/1/4 33/1/4
f 36/4/2 67/1/2 35/1/2
f 70/1/5 71/2/5 69/3/5
f 73/2/13 75/1/13 74/3/13
f 76/4/4 71/2/4 72/4/4
f 74/3/3 70/1/3 69/3/3
f 75/1/2 72/4/2 70/1/2
f 73/2/1 69/3/1 71/2/1
f 77/1/1 80/4/1 78/4/1
f 84/4/2 81/1/2 82/4/2
f 81/1/4 79/1/4 77/1/4
f 82/4/5 77/1/5 78/4/5
f 84/4/3 78/4/3 80/4/3
f 83/1/13 80/4/13 79/1/13
f 2/1/1 4/4/1 3/2/1
f 5/2/2 8/4/2 7/1/2
f 8/4/3 5/2/3 3/2/3
f 1/3/4 6/3/4 7/1/4
f 22/4/3 40/4/3 42/4/3
f 9/2/5 11/2/5 12/3/5
f 18/2/3 19/2/3 20/2/3
f 13/3/6 14/3/6 20/2/6
f 18/2/2 17/2/2 15/3/2
f 16/3/4 15/3/4 14/3/4
f 19/2/7 9/2/7 10/3/7
f 1/3/4 14/3/4 15/3/4
f 13/3/4 10/3/4 12/3/4
f 3/2/8 20/2/8 14/3/8
f 16/3/2 12/3/2 11/2/2
f 6/3/2 15/3/2 17/2/2
f 19/2/3 18/2/3 11/2/3
f 3/2/3 5/2/3 17/2/3
f 24/4/2 28/4/2 27/1/2
f 7/1/4 23/1/4 21/1/4
f 4/4/3 22/4/3 24/4/3
f 8/4/2 24/4/2 23/1/2
f 26/4/3 30/4/3 32/4/3
f 22/4/3 26/4/3 28/4/3
f 30/4/3 44/4/3 46/4/3
f 23/1/4 27/1/4 25/1/4
f 31/1/4 35/1/4 33/1/4
f 34/4/9 46/4/9 45/1/9
f 27/1/4 31/1/4 29/1/4
f 28/4/2 32/4/2 31/1/2
f 34/4/3 66/4/3 68/4/3
f 32/4/2 36/4/2 35/1/2
f 30/4/3 34/4/3 36/4/3
f 2/1/5 37/1/5 38/4/5
f 37/1/1 39/1/1 40/4/1
f 40/4/3 48/4/3 50/4/3
f 43/1/4 51/1/4 49/1/4
f 43/1/4 45/1/4 53/1/4
f 21/1/4 39/1/4 37/1/4
f 25/1/4 41/1/4 39/1/4
f 4/4/3 38/4/3 40/4/3
f 29/1/4 43/1/4 41/1/4
f 29/1/4 33/1/4 45/1/4
f 26/4/3 42/4/3 44/4/3
f 47/1/1 49/1/1 50/4/1
f 54/4/10 60/4/10 59/1/10
f 52/4/3 58/4/3 60/4/3
f 44/4/3 52/4/3 54/4/3
f 39/1/5 47/1/5 48/4/5
f 46/4/11 54/4/11 53/1/11
f 42/4/3 50/4/3 52/4/3
f 41/1/4 49/1/4 47/1/4
f 55/1/1 57/1/1 58/4/1
f 58/4/3 62/4/3 64/4/3
f 50/4/3 56/4/3 58/4/3
f 49/1/5 55/1/5 56/4/5
f 51/1/4 53/1/4 59/1/4
f 51/1/4 57/1/4 55/1/4
f 61/1/1 63/1/1 64/4/1
f 60/4/12 64/4/12 63/1/12
f 57/1/4 59/1/4 63/1/4
f 57/1/5 61/1/5 62/4/5
f 65/1/13 67/1/13 68/4/13
f 33/1/1 65/1/1 66/4/1
f 35/1/4 67/1/4 65/1/4
f 36/4/2 68/4/2 67/1/2
f 70/1/5 72/4/5 71/2/5
f 73/2/13 76/4/13 75/1/13
f 76/4/4 73/2/4 71/2/4
f 74/3/3 75/1/3 70/1/3
f 75/1/2 76/4/2 72/4/2
f 73/2/1 74/3/1 69/3/1
f 77/1/1 79/1/1 80/4/1
f 84/4/2 83/1/2 81/1/2
f 81/1/4 83/1/4 79/1/4
f 82/4/5 81/1/5 77/1/5
f 84/4/3 82/4/3 78/4/3
f 83/1/13 84/4/13 80/4/13
