# Blender 5.1.2
# www.blender.org
mtllib Teapot.mtl
o Circle
v 0.461576 0.130895 1.114343
v 1.114343 0.130895 0.461576
v 0.852881 0.130895 -0.852881
v 0.461576 0.130895 -1.114343
v -0.461576 0.130895 -1.114343
v -1.114343 0.130895 0.461576
v -0.852881 0.130895 0.852881
v 0.000000 0.183398 1.673623
v 0.640468 0.183398 1.546226
v 1.183430 0.183398 1.183430
v 1.546226 0.183398 0.640468
v 1.673623 0.183398 -0.000000
v 1.546226 0.183398 -0.640468
v 1.183430 0.183398 -1.183430
v 0.640468 0.183398 -1.546226
v 0.000000 0.183398 -1.673623
v -0.640467 0.183398 -1.546226
v -1.183430 0.183398 -1.183431
v -1.546226 0.183398 -0.640468
v -1.673623 0.183398 -0.000000
v -1.546226 0.183398 0.640468
v -1.183430 0.183398 1.183431
v -0.640467 0.183398 1.546227
v 0.000000 0.367162 2.178487
v 0.833671 0.367162 2.012660
v 1.540423 0.367162 1.540423
v 2.012660 0.367162 0.833671
v 2.178487 0.367162 -0.000000
v 2.012660 0.367162 -0.833671
v 1.540423 0.367162 -1.540423
v 0.833671 0.367162 -2.012660
v 0.000000 0.367162 -2.178487
v -0.833671 0.367162 -2.012660
v -1.540423 0.367162 -1.540424
v -2.012660 0.367162 -0.833671
v -2.178488 0.367162 -0.000000
v -2.012660 0.367162 0.833671
v -1.540423 0.367162 1.540424
v -0.833670 0.367162 2.012661
v 1.414948 3.361142 1.414948
v 0.000000 3.361142 -2.001039
v -1.414948 3.361142 -1.414949
v -1.848720 3.361142 -0.765765
v -1.848719 3.361142 0.765765
v -1.414948 3.361142 1.414949
v 2.549390 0.916050 -1.055992
v 2.700156 1.864152 -1.118442
v 2.549390 2.812254 -1.055992
v 2.759440 2.812253 -0.000000
v 2.922628 1.864152 -0.000000
v 2.759440 0.916050 -0.000000
v -2.549391 0.916050 1.055993
v -2.700157 1.864152 1.118442
v -2.549391 2.812254 1.055993
v -2.759441 2.812253 -0.000000
v -2.922629 1.864152 -0.000000
v -2.759441 0.916050 -0.000000
v 1.951219 0.916050 -1.951219
v 2.066610 1.864152 -2.066610
v 1.951219 2.812254 -1.951219
v -1.951219 0.916050 1.951220
v -2.066610 1.864152 2.066611
v -1.951219 2.812254 1.951220
v 1.055992 0.916050 -2.549391
v 1.118442 1.864152 -2.700156
v 1.055992 2.812254 -2.549391
v -1.055991 0.916050 2.549392
v -1.118440 1.864152 2.700157
v -1.055991 2.812254 2.549392
v 0.000000 0.916050 -2.759441
v 0.000000 1.864152 -2.922628
v 0.000000 2.812254 -2.759441
v 1.055992 0.916050 2.549391
v 1.118441 1.864152 2.700156
v 1.055992 2.812254 2.549391
v 0.000000 2.812253 2.759441
v 0.000000 1.864152 2.922628
v 0.000000 0.916050 2.759441
v -1.055992 0.916050 -2.549391
v -1.118441 1.864152 -2.700157
v -1.055992 2.812254 -2.549391
v 1.951219 0.916050 1.951219
v 2.066610 1.864152 2.066610
v 1.951219 2.812254 1.951219
v -1.951219 0.916050 -1.951220
v -2.066610 1.864152 -2.066611
v -1.951219 2.812254 -1.951220
v 2.549390 0.916050 1.055992
v 2.700156 1.864152 1.118442
v 2.549390 2.812254 1.055992
v -2.549391 0.916050 -1.055993
v -2.700157 1.864152 -1.118442
v -2.549391 2.812254 -1.055993
v 0.833671 3.361142 2.012660
v 0.000000 3.361142 2.178487
v 1.540423 3.361142 1.540423
v 2.012660 3.361142 0.833671
v 2.178487 3.361142 -0.000000
v 2.012660 3.361142 -0.833671
v 1.540423 3.361142 -1.540423
v 0.833671 3.361142 -2.012660
v 0.000000 3.361142 -2.178487
v -0.833671 3.361142 -2.012660
v -1.540423 3.361142 -1.540424
v -2.012660 3.361142 -0.833671
v -2.178488 3.361142 -0.000000
v -2.012660 3.361142 0.833671
v -1.540423 3.361142 1.540424
v -0.833670 3.361142 2.012661
v 0.181865 3.155751 2.298515
v 0.105000 3.232617 2.298515
v 0.000000 3.260751 2.298515
v -0.105000 3.232617 2.298515
v -0.181865 3.155751 2.298515
v -0.210000 3.050752 2.298515
v -0.181865 2.945752 2.298515
v -0.105000 2.868886 2.298515
v 0.000000 2.840751 2.298515
v 0.105000 2.868886 2.298515
v 0.181865 2.945751 2.298515
v 0.210000 3.050751 2.298515
v 0.181865 3.106010 2.873774
v 0.105000 3.181594 2.887754
v 0.000000 3.209259 2.892872
v -0.105000 3.181594 2.887754
v -0.181865 3.106011 2.873774
v -0.210000 3.002762 2.854676
v -0.181865 2.899513 2.835579
v -0.105000 2.823930 2.821598
v 0.000000 2.796265 2.816481
v 0.105000 2.823930 2.821598
v 0.181865 2.899513 2.835578
v 0.210000 3.002762 2.854676
v 0.181865 2.967163 3.356558
v 0.105000 3.038229 3.385848
v 0.000000 3.064241 3.396569
v -0.105000 3.038229 3.385848
v -0.181865 2.967163 3.356558
v -0.210000 2.870085 3.316548
v -0.181865 2.773007 3.276537
v -0.105000 2.701941 3.247248
v 0.000000 2.675929 3.236527
v 0.105000 2.701941 3.247248
v 0.181865 2.773006 3.276537
v 0.210000 2.870085 3.316548
v 0.181865 2.754508 3.743417
v 0.105000 2.816623 3.788694
v 0.000000 2.839359 3.805267
v -0.105000 2.816623 3.788694
v -0.181865 2.754508 3.743417
v -0.210000 2.669658 3.681568
v -0.181865 2.584807 3.619718
v -0.105000 2.522692 3.574441
v 0.000000 2.499957 3.557868
v 0.105000 2.522692 3.574441
v 0.181865 2.584807 3.619718
v 0.210000 2.669657 3.681568
v 0.181865 2.483383 4.029663
v 0.105000 2.530940 4.090050
v 0.000000 2.548347 4.112153
v -0.105000 2.530940 4.090050
v -0.181865 2.483383 4.029663
v -0.210000 2.418418 3.947173
v -0.181865 2.353454 3.864683
v -0.105000 2.305896 3.804296
v 0.000000 2.288489 3.782193
v 0.105000 2.305896 3.804296
v 0.181865 2.353454 3.864683
v 0.210000 2.418418 3.947173
v 0.181865 2.170007 4.209178
v 0.105000 2.196876 4.281194
v 0.000000 2.206711 4.307554
v -0.105000 2.196876 4.281195
v -0.181865 2.170007 4.209178
v -0.210000 2.133304 4.110802
v -0.181865 2.096600 4.012426
v -0.105000 2.069731 3.940410
v 0.000000 2.059896 3.914050
v 0.105000 2.069731 3.940410
v 0.181865 2.096600 4.012426
v 0.210000 2.133304 4.110802
v 0.181865 1.833118 4.274876
v 0.105000 1.834485 4.351729
v 0.000000 1.834985 4.379859
v -0.105000 1.834485 4.351729
v -0.181865 1.833118 4.274876
v -0.210000 1.831252 4.169892
v -0.181865 1.829385 4.064909
v -0.105000 1.828018 3.988056
v 0.000000 1.827518 3.959925
v 0.105000 1.828018 3.988056
v 0.181865 1.829385 4.064909
v 0.210000 1.831252 4.169892
v 0.181865 1.495036 4.221168
v 0.105000 1.470027 4.293851
v 0.000000 1.460873 4.320455
v -0.105000 1.470027 4.293851
v -0.181865 1.495036 4.221168
v -0.210000 1.529199 4.121881
v -0.181865 1.563362 4.022594
v -0.105000 1.588372 3.949911
v 0.000000 1.597526 3.923307
v 0.105000 1.588372 3.949911
v 0.181865 1.563363 4.022594
v 0.210000 1.529199 4.121881
v 0.181865 1.179444 4.046950
v 0.105000 1.132124 4.107523
v 0.000000 1.114804 4.129695
v -0.105000 1.132124 4.107523
v -0.181865 1.179444 4.046951
v -0.210000 1.244085 3.964206
v -0.181865 1.308725 3.881462
v -0.105000 1.356045 3.820889
v 0.000000 1.373366 3.798718
v 0.105000 1.356045 3.820889
v 0.181865 1.308725 3.881462
v 0.210000 1.244085 3.964206
v 0.181865 0.907082 3.754883
v 0.105000 0.844298 3.799228
v 0.000000 0.821318 3.815460
v -0.105000 0.844298 3.799228
v -0.181865 0.907082 3.754883
v -0.210000 0.992845 3.694305
v -0.181865 1.078609 3.633728
v -0.105000 1.141392 3.589383
v 0.000000 1.164373 3.573151
v 0.105000 1.141392 3.589383
v 0.181865 1.078609 3.633728
v 0.210000 0.992845 3.694305
v 0.181865 0.694499 3.347522
v 0.105000 0.622817 3.375270
v 0.000000 0.596580 3.385427
v -0.105000 0.622817 3.375270
v -0.181865 0.694499 3.347522
v -0.210000 0.792418 3.309617
v -0.181865 0.890338 3.271711
v -0.105000 0.962020 3.243963
v 0.000000 0.988257 3.233806
v 0.105000 0.962020 3.243963
v 0.181865 0.890338 3.271711
v 0.210000 0.792418 3.309617
v 0.181865 0.556214 2.825102
v 0.105000 0.480427 2.837931
v 0.000000 0.452687 2.842627
v -0.105000 0.480427 2.837931
v -0.181865 0.556214 2.825102
v -0.210000 0.659741 2.807577
v -0.181865 0.763268 2.790052
v -0.105000 0.839056 2.777223
v 0.000000 0.866796 2.772527
v 0.105000 0.839056 2.777223
v 0.181865 0.763269 2.790052
v 0.210000 0.659742 2.807577
v 0.181865 0.506751 2.185623
v 0.105000 0.429885 2.185623
v 0.000000 0.401751 2.185623
v -0.105000 0.429885 2.185623
v -0.181865 0.506751 2.185623
v -0.210000 0.611751 2.185623
v -0.181865 0.716751 2.185623
v -0.105000 0.793616 2.185623
v 0.000000 0.821751 2.185623
v 0.105000 0.793616 2.185623
v 0.181865 0.716751 2.185623
v 0.210000 0.611751 2.185623
v -0.277752 2.267944 -2.496793
v -0.160361 2.385316 -2.494651
v 0.000000 2.428278 -2.493866
v 0.160360 2.385317 -2.494651
v 0.277752 2.267944 -2.496793
v 0.320721 2.107611 -2.499720
v 0.277752 1.947277 -2.502646
v 0.160361 1.829905 -2.504788
v 0.000000 1.786943 -2.505573
v -0.160360 1.829904 -2.504788
v -0.277752 1.947277 -2.502646
v -0.320721 2.107610 -2.499720
v -0.277752 2.313630 -2.739912
v -0.160361 2.424124 -2.700263
v 0.000000 2.464567 -2.685751
v 0.160360 2.424124 -2.700263
v 0.277752 2.313631 -2.739911
v 0.320721 2.162693 -2.794072
v 0.277752 2.011755 -2.848233
v 0.160361 1.901262 -2.887881
v 0.000000 1.860818 -2.902393
v -0.160360 1.901261 -2.887881
v -0.277752 2.011755 -2.848233
v -0.320721 2.162693 -2.794072
v -0.277752 2.434695 -2.957503
v -0.160361 2.530087 -2.889084
v 0.000000 2.565002 -2.864040
v 0.160360 2.530087 -2.889083
v 0.277752 2.434695 -2.957503
v 0.320721 2.304387 -3.050966
v 0.277752 2.174079 -3.144429
v 0.160361 2.078687 -3.212849
v 0.000000 2.043771 -3.237892
v -0.160360 2.078687 -3.212849
v -0.277752 2.174079 -3.144429
v -0.320721 2.304386 -3.050966
v -0.277752 2.625042 -3.164764
v -0.160361 2.705816 -3.079579
v 0.000000 2.735381 -3.048399
v 0.160360 2.705816 -3.079579
v 0.277752 2.625042 -3.164764
v 0.320721 2.514703 -3.281128
v 0.277752 2.404364 -3.397493
v 0.160361 2.323590 -3.482678
v 0.000000 2.294024 -3.513858
v -0.160360 2.323589 -3.482678
v -0.277752 2.404363 -3.397493
v -0.320721 2.514702 -3.281129
v -0.270096 2.856498 -3.355179
v -0.156256 2.927161 -3.265220
v 0.000000 2.953084 -3.232196
v 0.156256 2.927161 -3.265220
v 0.270096 2.856498 -3.355179
v 0.310986 2.760375 -3.477414
v 0.268517 2.664749 -3.598860
v 0.154677 2.595081 -3.687240
v 0.000000 2.569655 -3.719476
v -0.154677 2.595081 -3.687240
v -0.268517 2.664749 -3.598860
v -0.310986 2.760374 -3.477415
v -0.248781 3.068759 -3.503485
v -0.144342 3.133472 -3.419993
v 0.000000 3.157297 -3.389217
v 0.144342 3.133472 -3.419993
v 0.248781 3.068759 -3.503484
v 0.284693 2.982899 -3.618483
v 0.243583 2.900984 -3.734272
v 0.139127 2.843879 -3.818878
v 0.000000 2.824020 -3.850089
v -0.139127 2.843879 -3.818879
v -0.243583 2.900984 -3.734272
v -0.284693 2.982899 -3.618484
v -0.216724 3.230285 -3.622245
v -0.126681 3.285466 -3.542258
v 0.000000 3.306374 -3.513118
v 0.126680 3.285467 -3.542258
v 0.216724 3.230286 -3.622245
v 0.245819 3.159469 -3.731704
v 0.208475 3.090666 -3.837071
v 0.118294 3.041124 -3.910176
v 0.000000 3.024439 -3.937443
v -0.118294 3.041124 -3.910176
v -0.208475 3.090666 -3.837072
v -0.245819 3.159469 -3.731704
v -0.185872 3.349143 -3.732982
v -0.108757 3.399236 -3.662148
v 0.000000 3.418387 -3.636005
v 0.108757 3.399236 -3.662148
v 0.185872 3.349143 -3.732981
v 0.210528 3.282994 -3.827444
v 0.178537 3.218535 -3.917648
v 0.101447 3.171802 -3.979724
v 0.000000 3.155376 -4.002384
v -0.101446 3.171802 -3.979724
v -0.178537 3.218535 -3.917648
v -0.210528 3.282994 -3.827445
v -0.165169 3.483461 -3.899516
v -0.097088 3.530112 -3.835423
v 0.000000 3.547237 -3.809566
v 0.097088 3.530113 -3.835423
v 0.165169 3.483461 -3.899516
v 0.186608 3.421795 -3.982020
v 0.158064 3.363074 -4.061625
v 0.090003 3.320710 -4.116324
v 0.000000 3.306705 -4.137613
v -0.090002 3.320710 -4.116325
v -0.158063 3.363074 -4.061625
v -0.186608 3.421795 -3.982020
v -0.148351 3.649298 -4.152245
v -0.087343 3.700400 -4.105089
v 0.000000 3.719557 -4.085814
v 0.087343 3.700400 -4.105089
v 0.148350 3.649298 -4.152244
v 0.167480 3.582037 -4.211955
v 0.142276 3.517078 -4.267777
v 0.080983 3.471170 -4.307461
v 0.000000 3.454952 -4.322074
v -0.080983 3.471170 -4.307461
v -0.142276 3.517077 -4.267777
v -0.167480 3.582037 -4.211955
v -0.130859 3.755869 -4.395531
v -0.076125 3.807625 -4.372122
v 0.000000 3.826769 -4.363450
v 0.076125 3.807625 -4.372122
v 0.130859 3.755869 -4.395531
v 0.149609 3.686400 -4.426853
v 0.128349 3.618240 -4.457450
v 0.073619 3.569097 -4.479414
v 0.000000 3.551255 -4.487365
v -0.073619 3.569097 -4.479414
v -0.128349 3.618240 -4.457450
v -0.149609 3.686400 -4.426853
v -0.121739 3.808193 -4.610414
v -0.070286 3.859030 -4.602481
v 0.000000 3.877639 -4.599578
v 0.070286 3.859031 -4.602481
v 0.121739 3.808193 -4.610414
v 0.140572 3.738747 -4.621247
v 0.121739 3.669301 -4.632082
v 0.070286 3.618463 -4.640014
v 0.000000 3.599855 -4.642917
v -0.070286 3.618463 -4.640014
v -0.121739 3.669301 -4.632082
v -0.140572 3.738747 -4.621247
v -0.121739 3.816930 -4.832951
v -0.070286 3.868268 -4.836393
v 0.000000 3.887058 -4.837655
v 0.070286 3.868268 -4.836393
v 0.121739 3.816930 -4.832951
v 0.140572 3.746802 -4.828247
v 0.121739 3.676672 -4.823542
v 0.070286 3.625335 -4.820097
v 0.000000 3.606544 -4.818838
v -0.070286 3.625335 -4.820097
v -0.121739 3.676672 -4.823542
v -0.140572 3.746800 -4.828247
v 0.000000 3.361142 2.001039
v 0.765765 3.361142 1.848719
v 1.848719 3.361142 0.765765
v 2.001039 3.361142 -0.000000
v 1.848719 3.361142 -0.765765
v 1.414948 3.361142 -1.414948
v 0.765765 3.361142 -1.848719
v -0.765764 3.361142 -1.848719
v -2.001040 3.361142 -0.000000
v -0.765764 3.361142 1.848720
v 0.765765 3.481768 1.848719
v 0.000000 3.481768 2.001039
v 1.414948 3.481768 1.414948
v 1.848719 3.481768 0.765765
v 2.001039 3.481768 -0.000000
v 1.848719 3.481768 -0.765765
v 1.414948 3.481768 -1.414948
v 0.765765 3.481768 -1.848719
v 0.000000 3.481768 -2.001039
v -0.765764 3.481768 -1.848719
v -1.414948 3.481768 -1.414949
v -1.848720 3.481768 -0.765765
v -2.001040 3.481768 -0.000000
v -1.848719 3.481768 0.765765
v -1.414948 3.481768 1.414949
v -0.765764 3.481768 1.848720
v 0.669138 3.675394 1.615442
v 0.000000 3.675394 1.748542
v 1.236406 3.675394 1.236406
v 1.615442 3.675394 0.669138
v 1.748542 3.675394 -0.000000
v 1.615442 3.675394 -0.669138
v 1.236406 3.675394 -1.236406
v 0.669138 3.675394 -1.615442
v 0.000000 3.675394 -1.748542
v -0.669138 3.675394 -1.615442
v -1.236406 3.675394 -1.236406
v -1.615442 3.675394 -0.669138
v -1.748542 3.675394 -0.000000
v -1.615442 3.675394 0.669138
v -1.236405 3.675394 1.236406
v -0.669137 3.675394 1.615443
v 0.384814 3.807953 0.929022
v 0.000000 3.807953 1.005566
v 0.711043 3.807953 0.711043
v 0.929022 3.807953 0.384814
v 1.005566 3.807953 -0.000000
v 0.929022 3.807953 -0.384814
v 0.711043 3.807953 -0.711043
v 0.384814 3.807953 -0.929022
v 0.000000 3.807953 -1.005566
v -0.384814 3.807953 -0.929022
v -0.711043 3.807953 -0.711043
v -0.929023 3.807953 -0.384814
v -1.005567 3.807953 -0.000000
v -0.929022 3.807953 0.384814
v -0.711043 3.807953 0.711043
v -0.384813 3.807953 0.929022
v 0.000000 3.970387 0.180876
v 0.069219 3.970387 0.167107
v 0.127899 3.970387 0.127899
v 0.167107 3.970387 0.069218
v 0.180876 3.970387 -0.000000
v 0.167107 3.970387 -0.069218
v 0.127898 3.970387 -0.127898
v 0.069218 3.970387 -0.167107
v 0.000000 3.970387 -0.180876
v -0.069218 3.970387 -0.167107
v -0.127899 3.970387 -0.127898
v -0.167107 3.970387 -0.069218
v -0.180876 3.970387 -0.000000
v -0.167107 3.970387 0.069218
v -0.127898 3.970387 0.127898
v -0.069218 3.970387 0.167107
v -0.000001 3.970387 0.214874
v 0.082229 3.970387 0.198518
v 0.151939 3.970387 0.151939
v 0.198518 3.970387 0.082229
v 0.214874 3.970387 -0.000000
v 0.198518 3.970387 -0.082229
v 0.151939 3.970387 -0.151939
v 0.082229 3.970387 -0.198518
v 0.000000 3.970387 -0.214874
v -0.082229 3.970387 -0.198518
v -0.151939 3.970387 -0.151939
v -0.198518 3.970387 -0.082229
v -0.214875 3.970387 -0.000000
v -0.198518 3.970387 0.082229
v -0.151939 3.970387 0.151939
v -0.082228 3.970387 0.198518
v -0.000001 4.208456 0.147887
v -0.000001 4.142756 0.214874
v -0.000001 4.189213 0.195254
v 0.082229 4.142756 0.198518
v 0.056594 4.208456 0.136630
v 0.074721 4.189213 0.180391
v 0.151939 4.142756 0.151939
v 0.104572 4.208456 0.104572
v 0.138066 4.189213 0.138066
v 0.198518 4.142756 0.082229
v 0.136630 4.208456 0.056595
v 0.180391 4.189213 0.074721
v 0.214874 4.142756 -0.000000
v 0.147887 4.208456 -0.000000
v 0.195254 4.189213 -0.000000
v 0.198518 4.142756 -0.082229
v 0.136630 4.208456 -0.056594
v 0.180391 4.189213 -0.074721
v 0.151939 4.142756 -0.151939
v 0.104572 4.208456 -0.104572
v 0.138066 4.189213 -0.138066
v 0.082229 4.142756 -0.198518
v 0.056594 4.208456 -0.136630
v 0.074721 4.189213 -0.180391
v 0.000000 4.142756 -0.214874
v 0.000000 4.208456 -0.147887
v 0.000000 4.189213 -0.195254
v -0.082229 4.142756 -0.198518
v -0.056595 4.208456 -0.136630
v -0.074721 4.189213 -0.180391
v -0.151939 4.142756 -0.151939
v -0.104573 4.208456 -0.104572
v -0.138066 4.189213 -0.138066
v -0.198518 4.142756 -0.082229
v -0.136631 4.208456 -0.056594
v -0.180392 4.189213 -0.074721
v -0.214875 4.142756 -0.000000
v -0.147888 4.208456 -0.000000
v -0.195255 4.189213 -0.000000
v -0.198518 4.142756 0.082229
v -0.136631 4.208456 0.056594
v -0.180392 4.189213 0.074720
v -0.151939 4.142756 0.151939
v -0.104572 4.208456 0.104572
v -0.138066 4.189213 0.138066
v -0.082229 4.142756 0.198518
v -0.056594 4.208456 0.136630
v -0.074720 4.189213 0.180392
v -0.000001 3.870429 0.180876
v -0.000001 3.807953 0.244576
v -0.000001 3.826252 0.199533
v 0.093595 3.807953 0.225958
v 0.069218 3.870429 0.167107
v 0.076358 3.826252 0.184344
v 0.172941 3.807953 0.172941
v 0.127898 3.870429 0.127899
v 0.141091 3.826252 0.141091
v 0.225958 3.807953 0.093595
v 0.167107 3.870429 0.069218
v 0.184344 3.826252 0.076358
v 0.244575 3.807953 -0.000000
v 0.180876 3.870429 -0.000000
v 0.199533 3.826252 -0.000000
v 0.225958 3.807953 -0.093595
v 0.167107 3.870429 -0.069218
v 0.184344 3.826252 -0.076358
v 0.172941 3.807953 -0.172941
v 0.127898 3.870429 -0.127898
v 0.141091 3.826252 -0.141091
v 0.093595 3.807953 -0.225958
v 0.069218 3.870429 -0.167107
v 0.076358 3.826252 -0.184344
v 0.000000 3.807953 -0.244575
v 0.000000 3.870429 -0.180876
v 0.000000 3.826252 -0.199533
v -0.093595 3.807953 -0.225958
v -0.069218 3.870429 -0.167107
v -0.076358 3.826252 -0.184344
v -0.172941 3.807953 -0.172941
v -0.127899 3.870429 -0.127898
v -0.141091 3.826252 -0.141091
v -0.225959 3.807953 -0.093595
v -0.167108 3.870429 -0.069218
v -0.184345 3.826252 -0.076358
v -0.244576 3.807953 -0.000000
v -0.180876 3.870429 -0.000000
v -0.199533 3.826252 -0.000000
v -0.225959 3.807953 0.093595
v -0.167108 3.870429 0.069218
v -0.184345 3.826252 0.076358
v -0.172941 3.807953 0.172941
v -0.127898 3.870429 0.127898
v -0.141091 3.826252 0.141091
v -0.093595 3.807953 0.225958
v -0.069218 3.870429 0.167107
v -0.076358 3.826252 0.184344
v 0.000000 0.000000 1.000000
v 0.382683 0.000000 0.923880
v 0.707107 0.000000 0.707107
v 0.923880 0.000000 0.382683
v 1.000000 0.000000 0.000000
v 0.923880 -0.000000 -0.382684
v 0.707107 -0.000000 -0.707107
v 0.382683 -0.000000 -0.923880
v 0.000000 -0.000000 -1.000000
v -0.382683 -0.000000 -0.923880
v -0.707107 -0.000000 -0.707107
v -0.923880 -0.000000 -0.382684
v -1.000000 0.000000 0.000000
v -0.923879 0.000000 0.382684
v -0.707107 0.000000 0.707107
v -0.382683 0.000000 0.923880
v 0.000000 0.130895 1.206156
v 0.852881 0.130895 0.852881
v 1.206156 0.130895 -0.000000
v 1.114343 0.130895 -0.461576
v 0.000000 0.130895 -1.206156
v -0.852881 0.130895 -0.852881
v -1.114343 0.130895 -0.461576
v -1.206156 0.130895 -0.000000
v -0.461575 0.130895 1.114343
vn -0.0789 -0.9938 -0.0789
vn -0.0927 -0.9702 -0.2239
vn -0.0427 -0.9938 -0.1031
vn -0.0927 -0.9702 0.2239
vn -0.3840 -0.8397 0.3840
vn -0.1714 -0.9702 0.1714
vn 0.1031 -0.9938 0.0427
vn 0.1714 -0.9702 0.1714
vn 0.0789 -0.9938 0.0789
vn -0.1031 -0.9938 -0.0427
vn -0.1714 -0.9702 -0.1714
vn 0.2423 -0.9702 -0.0000
vn 0.2239 -0.9702 0.0927
vn -0.2423 -0.9702 -0.0000
vn -0.2239 -0.9702 -0.0927
vn 0.1031 -0.9938 -0.0427
vn 0.1116 -0.9938 -0.0000
vn -0.1031 -0.9938 0.0427
vn -0.1116 -0.9938 -0.0000
vn 0.1714 -0.9702 -0.1714
vn 0.2239 -0.9702 -0.0927
vn -0.0789 -0.9938 0.0789
vn -0.2239 -0.9702 0.0927
vn 0.0789 -0.9938 -0.0789
vn 0.0927 -0.9702 -0.2239
vn -0.0427 -0.9938 0.1031
vn -0.0000 -0.9938 -0.1116
vn 0.0427 -0.9938 -0.1031
vn -0.0000 -0.9938 0.1116
vn 0.0927 -0.9702 0.2239
vn -0.0000 -0.9702 0.2423
vn -0.0000 -0.9702 -0.2423
vn 0.0427 -0.9938 0.1031
vn 0.8895 0.4568 -0.0000
vn 0.3770 0.9130 -0.1561
vn 0.4080 0.9130 -0.0000
vn 0.2078 -0.8397 -0.5018
vn 0.2078 -0.8397 0.5018
vn -0.0000 -0.8397 0.5431
vn -0.2078 -0.8397 0.5018
vn -0.0000 -0.8397 -0.5431
vn -0.3840 -0.8397 -0.3840
vn -0.2078 -0.8397 -0.5018
vn 0.5018 -0.8397 0.2078
vn 0.3840 -0.8397 0.3840
vn 0.5431 -0.8397 -0.0000
vn -0.5018 -0.8397 -0.2078
vn -0.5018 -0.8397 0.2078
vn -0.5431 -0.8397 -0.0000
vn 0.5018 -0.8397 -0.2078
vn 0.3840 -0.8397 -0.3840
vn -0.8218 0.4568 0.3404
vn -0.4080 0.9130 -0.0000
vn -0.8896 0.4568 -0.0000
vn 0.8218 0.4568 -0.3404
vn 0.2885 0.9130 -0.2885
vn -0.6290 0.4568 0.6290
vn -0.3770 0.9130 0.1561
vn 0.3404 0.4568 -0.8218
vn 0.6290 0.4568 -0.6290
vn -0.3404 0.4568 0.8218
vn -0.2885 0.9130 0.2885
vn -0.0000 0.9130 -0.4080
vn 0.1561 0.9130 -0.3770
vn 0.3404 0.4568 0.8218
vn -0.0000 0.9130 0.4080
vn -0.0000 0.4568 0.8895
vn -0.1561 0.9130 0.3770
vn -0.3404 0.4568 -0.8218
vn -0.0000 0.4568 -0.8896
vn 0.2885 0.9130 0.2885
vn 0.1561 0.9130 0.3770
vn -0.2885 0.9130 -0.2885
vn -0.1561 0.9130 -0.3770
vn 0.8218 0.4568 0.3404
vn 0.6290 0.4568 0.6290
vn -0.6290 0.4568 -0.6290
vn -0.3770 0.9130 -0.1561
vn 0.3770 0.9130 0.1561
vn -0.8218 0.4568 -0.3404
vn -0.8218 -0.4568 -0.3404
vn -0.8896 -0.4568 -0.0000
vn -0.9239 -0.0000 -0.3827
vn 0.8895 -0.4568 -0.0000
vn 0.8218 -0.4568 0.3404
vn 1.0000 -0.0000 -0.0000
vn 0.9239 -0.0000 0.3827
vn -0.6290 -0.4568 -0.6290
vn -0.7071 -0.0000 -0.7071
vn 0.6290 -0.4568 0.6290
vn 0.7071 -0.0000 0.7071
vn -0.3404 -0.4568 -0.8218
vn -0.3827 -0.0000 -0.9239
vn 0.3404 -0.4568 0.8218
vn 0.3827 -0.0000 0.9239
vn -0.0000 -0.4568 -0.8896
vn -0.0000 -0.0000 -1.0000
vn -0.0000 -0.4568 0.8895
vn -0.3404 -0.4568 0.8218
vn -0.3827 -0.0000 0.9239
vn -0.0000 -0.0000 1.0000
vn 0.3404 -0.4568 -0.8218
vn 0.3827 -0.0000 -0.9239
vn -0.6290 -0.4568 0.6290
vn -0.7071 -0.0000 0.7071
vn 0.6290 -0.4568 -0.6290
vn 0.7071 -0.0000 -0.7071
vn -0.8218 -0.4568 0.3404
vn -0.9239 -0.0000 0.3827
vn 0.8218 -0.4568 -0.3404
vn 0.9239 -0.0000 -0.3827
vn -1.0000 -0.0000 -0.0000
vn -0.0000 1.0000 -0.0000
vn 0.8590 0.5100 0.0441
vn 0.9999 0.0157 0.0029
vn 0.9999 0.0142 0.0012
vn 0.4925 0.8671 0.0750
vn 0.8591 0.5032 0.0932
vn -0.0000 0.9963 0.0863
vn 0.4932 0.8553 0.1586
vn -0.4932 0.8553 0.1586
vn -0.4925 0.8671 0.0750
vn -0.8591 0.5032 0.0932
vn -0.8590 0.5100 0.0441
vn -0.9999 0.0157 0.0029
vn -0.9999 0.0142 0.0012
vn -0.8729 -0.4798 -0.0886
vn -0.8714 -0.4888 -0.0420
vn -0.5070 -0.8476 -0.1564
vn -0.5048 -0.8601 -0.0739
vn -0.0000 -0.9834 -0.1814
vn -0.0000 -0.9963 -0.0856
vn 0.5048 -0.8601 -0.0739
vn 0.8714 -0.4888 -0.0420
vn 0.5070 -0.8476 -0.1564
vn 0.8729 -0.4798 -0.0886
vn 0.9998 0.0169 0.0070
vn 0.8581 0.4747 0.1959
vn -0.0000 0.9832 0.1823
vn 0.4922 0.8046 0.3322
vn -0.4922 0.8046 0.3322
vn -0.8581 0.4747 0.1959
vn -0.9998 0.0169 0.0070
vn -0.8739 -0.4495 -0.1850
vn -0.5081 -0.7966 -0.3276
vn -0.0000 -0.9249 -0.3802
vn 0.5081 -0.7966 -0.3276
vn 0.8739 -0.4495 -0.1850
vn 0.9998 0.0169 0.0124
vn 0.8569 0.4163 0.3039
vn -0.0000 0.9243 0.3817
vn 0.4911 0.7035 0.5137
vn -0.4911 0.7035 0.5137
vn -0.8569 0.4163 0.3039
vn -0.9998 0.0169 0.0124
vn -0.8751 -0.3913 -0.2848
vn -0.5093 -0.6960 -0.5061
vn -0.0000 -0.8089 -0.5879
vn 0.5093 -0.6960 -0.5061
vn 0.8751 -0.3913 -0.2848
vn 0.9997 0.0148 0.0189
vn 0.8556 0.3199 0.4069
vn -0.0000 0.8075 0.5898
vn 0.4898 0.5386 0.6855
vn -0.4898 0.5386 0.6855
vn -0.8556 0.3199 0.4069
vn -0.9997 0.0148 0.0189
vn -0.8764 -0.2983 -0.3781
vn -0.5107 -0.5330 -0.6746
vn -0.0000 -0.6202 -0.7845
vn 0.5107 -0.5330 -0.6746
vn 0.8764 -0.2983 -0.3781
vn 0.9996 0.0093 0.0253
vn 0.8544 0.1812 0.4870
vn -0.0000 0.6177 0.7864
vn 0.4887 0.3041 0.8178
vn -0.4887 0.3041 0.8178
vn -0.8544 0.1812 0.4870
vn -0.9996 0.0093 0.0253
vn -0.8777 -0.1679 -0.4489
vn -0.5121 -0.3015 -0.8043
vn -0.0000 -0.3513 -0.9363
vn 0.5121 -0.3015 -0.8043
vn 0.8777 -0.1679 -0.4489
vn 0.9996 0.0005 0.0288
vn 0.8536 0.0091 0.5209
vn -0.0000 0.3484 0.9373
vn 0.4880 0.0151 0.8727
vn -0.4880 0.0151 0.8727
vn -0.8536 0.0091 0.5209
vn -0.9996 0.0005 0.0288
vn -0.8786 -0.0086 -0.4776
vn -0.5130 -0.0157 -0.8582
vn -0.0000 -0.0184 -0.9998
vn 0.5130 -0.0157 -0.8582
vn 0.8786 -0.0086 -0.4776
vn 0.8537 -0.1691 0.4925
vn 0.4881 -0.2834 0.8255
vn -0.0000 -0.3247 0.9458
vn -0.0000 0.0173 0.9998
vn -0.4881 -0.2834 0.8255
vn -0.8537 -0.1691 0.4925
vn -0.9996 -0.0092 0.0270
vn -0.8784 0.1557 -0.4518
vn -0.5129 0.2800 -0.8115
vn 0.5129 0.2800 -0.8115
vn 0.8784 0.1557 -0.4518
vn 0.9996 -0.0092 0.0270
vn 0.8548 -0.3191 0.4093
vn 0.4891 -0.5361 0.6881
vn -0.0000 -0.6145 0.7889
vn -0.4891 -0.5361 0.6881
vn -0.8548 -0.3191 0.4093
vn -0.9997 -0.0159 0.0205
vn -0.8773 0.2959 -0.3780
vn -0.0000 0.3264 -0.9452
vn -0.5116 0.5302 -0.6761
vn 0.5116 0.5302 -0.6761
vn 0.8773 0.2959 -0.3780
vn 0.9997 -0.0159 0.0205
vn 0.8564 -0.4214 0.2982
vn 0.4906 -0.7111 0.5036
vn -0.0000 -0.8160 0.5780
vn -0.4906 -0.7111 0.5036
vn -0.8564 -0.4214 0.2982
vn -0.9998 -0.0180 0.0128
vn -0.8756 0.3949 -0.2783
vn -0.0000 0.6173 -0.7867
vn -0.5098 0.7035 -0.4952
vn 0.5098 0.7035 -0.4952
vn 0.8756 0.3949 -0.2783
vn 0.9998 -0.0180 0.0128
vn 0.8581 -0.4787 0.1856
vn 0.4922 -0.8115 0.3149
vn -0.0000 -0.9322 0.3619
vn -0.4922 -0.8115 0.3149
vn -0.8581 -0.4787 0.1856
vn -0.9998 -0.0170 0.0066
vn -0.8739 0.4534 -0.1752
vn -0.0000 0.8179 -0.5754
vn -0.5081 0.8036 -0.3101
vn 0.5081 0.8036 -0.3101
vn 0.8739 0.4534 -0.1752
vn 0.9998 -0.0170 0.0066
vn 0.8596 -0.5039 0.0854
vn 0.4936 -0.8574 0.1455
vn -0.0000 -0.9859 0.1674
vn -0.4936 -0.8574 0.1455
vn -0.8595 -0.5039 0.0854
vn -0.9999 -0.0147 0.0025
vn -0.8725 0.4818 -0.0814
vn -0.0000 0.9330 -0.3599
vn -0.5066 0.8502 -0.1434
vn 0.5066 0.8502 -0.1434
vn 0.8725 0.4819 -0.0814
vn 0.9999 -0.0147 0.0025
vn 0.8598 -0.5090 0.0394
vn 0.4934 -0.8672 0.0671
vn -0.0000 -0.9970 0.0773
vn -0.4934 -0.8672 0.0671
vn -0.8598 -0.5090 0.0394
vn -0.9999 -0.0127 0.0010
vn -0.8709 0.4901 -0.0377
vn -0.0000 0.9861 -0.1663
vn -0.5044 0.8609 -0.0661
vn 0.5044 0.8609 -0.0661
vn 0.8709 0.4901 -0.0377
vn 0.9999 -0.0127 0.0010
vn -0.8751 0.4756 0.0893
vn -0.9997 -0.0247 -0.0086
vn -0.9996 -0.0273 -0.0051
vn -0.5071 0.8469 0.1597
vn -0.8775 0.4511 0.1628
vn -0.0000 0.9826 0.1856
vn -0.5122 0.8072 0.2933
vn 0.5122 0.8072 0.2933
vn 0.5071 0.8469 0.1597
vn 0.8775 0.4511 0.1628
vn 0.8751 0.4756 0.0893
vn 0.9997 -0.0247 -0.0086
vn 0.9996 -0.0273 -0.0051
vn 0.8548 -0.4888 -0.1742
vn 0.8510 -0.5163 -0.0962
vn 0.4891 -0.8217 -0.2924
vn 0.4835 -0.8606 -0.1603
vn -0.0000 -0.9422 -0.3351
vn -0.0000 -0.9831 -0.1830
vn -0.4835 -0.8606 -0.1603
vn -0.8510 -0.5163 -0.0962
vn -0.4891 -0.8217 -0.2924
vn -0.8548 -0.4888 -0.1742
vn -0.9998 -0.0158 -0.0110
vn -0.8743 0.3935 0.2843
vn -0.0000 0.9395 0.3425
vn -0.5085 0.6966 0.5061
vn 0.5085 0.6966 0.5061
vn 0.8743 0.3935 0.2843
vn 0.9998 -0.0158 -0.0110
vn 0.8576 -0.4187 -0.2987
vn 0.4917 -0.7095 -0.5049
vn -0.0000 -0.8149 -0.5795
vn -0.4917 -0.7095 -0.5049
vn -0.8576 -0.4187 -0.2987
vn -0.9998 0.0026 -0.0203
vn -0.8715 0.3454 0.3482
vn -0.0000 0.8084 0.5886
vn -0.5055 0.5983 0.6217
vn 0.5055 0.5983 0.6217
vn 0.8715 0.3454 0.3482
vn 0.9998 0.0026 -0.0203
vn 0.8602 -0.3368 -0.3830
vn 0.4942 -0.5830 -0.6449
vn -0.0000 -0.6726 -0.7400
vn -0.4942 -0.5830 -0.6449
vn -0.8602 -0.3368 -0.3830
vn -0.9977 0.0434 -0.0527
vn -0.8713 0.3336 0.3599
vn -0.0000 0.6912 0.7226
vn -0.5053 0.5486 0.6661
vn 0.5053 0.5486 0.6661
vn 0.8713 0.3336 0.3599
vn 0.9977 0.0434 -0.0527
vn 0.8562 -0.2440 -0.4553
vn 0.4912 -0.4538 -0.7435
vn -0.0000 -0.5305 -0.8477
vn -0.4912 -0.4538 -0.7435
vn -0.8562 -0.2440 -0.4553
vn -0.9901 0.1036 -0.0950
vn -0.8686 0.3679 0.3320
vn -0.0000 0.6277 0.7785
vn -0.5063 0.5583 0.6572
vn 0.5063 0.5583 0.6572
vn 0.8686 0.3679 0.3320
vn 0.9901 0.1036 -0.0949
vn 0.8486 -0.1600 -0.5042
vn 0.4894 -0.3544 -0.7968
vn -0.0000 -0.4274 -0.9040
vn -0.4894 -0.3544 -0.7968
vn -0.8486 -0.1600 -0.5042
vn -0.9801 0.1499 -0.1302
vn -0.8649 0.4176 0.2785
vn -0.0000 0.6265 0.7795
vn -0.5114 0.6153 0.5999
vn 0.5114 0.6153 0.5999
vn 0.8649 0.4176 0.2785
vn 0.9801 0.1499 -0.1302
vn 0.8451 -0.1270 -0.5194
vn 0.4930 -0.3392 -0.8012
vn -0.4930 -0.3392 -0.8012
vn -0.8451 -0.1270 -0.5194
vn -0.8639 0.4426 0.2403
vn -0.5120 0.6817 0.5227
vn -0.0000 0.7727 0.6348
vn -0.0000 0.6896 0.7242
vn 0.5120 0.6817 0.5227
vn 0.8639 0.4426 0.2403
vn 0.9855 0.1241 -0.1156
vn 0.8621 -0.2043 -0.4637
vn -0.0000 -0.4211 -0.9070
vn 0.5092 -0.4594 -0.7278
vn -0.5092 -0.4594 -0.7278
vn -0.8621 -0.2043 -0.4637
vn -0.9855 0.1241 -0.1156
vn -0.8750 0.4275 0.2272
vn -0.5217 0.7144 0.4663
vn -0.0000 0.8264 0.5632
vn 0.5217 0.7144 0.4663
vn 0.8750 0.4275 0.2272
vn 0.9957 0.0520 -0.0768
vn 0.8670 -0.3270 -0.3760
vn -0.0000 -0.5590 -0.8292
vn 0.5093 -0.6154 -0.6016
vn -0.5093 -0.6154 -0.6016
vn -0.8670 -0.3270 -0.3760
vn -0.9957 0.0520 -0.0768
vn -0.8762 0.4478 0.1780
vn -0.5209 0.7683 0.3720
vn -0.0000 0.8929 0.4503
vn 0.5209 0.7683 0.3720
vn 0.8762 0.4478 0.1780
vn 0.9971 0.0272 -0.0705
vn 0.8639 -0.3926 -0.3155
vn -0.0000 -0.7277 -0.6859
vn 0.5020 -0.7073 -0.4978
vn -0.5020 -0.7073 -0.4978
vn -0.8639 -0.3926 -0.3155
vn -0.9971 0.0272 -0.0705
vn -0.8652 0.4881 0.1150
vn -0.5013 0.8307 0.2421
vn -0.0000 0.9573 0.2890
vn 0.5013 0.8307 0.2421
vn 0.8652 0.4881 0.1150
vn 0.9981 0.0233 -0.0573
vn 0.8666 -0.4430 -0.2297
vn -0.0000 -0.8250 -0.5651
vn 0.5023 -0.7877 -0.3567
vn -0.5023 -0.7877 -0.3567
vn -0.8666 -0.4430 -0.2297
vn -0.9981 0.0233 -0.0573
vn -0.8580 0.5109 0.0541
vn -0.4923 0.8638 0.1070
vn -0.0000 0.9920 0.1262
vn 0.4923 0.8638 0.1070
vn 0.8580 0.5109 0.0541
vn 0.9996 0.0214 -0.0193
vn 0.8738 -0.4772 -0.0939
vn -0.0000 -0.9150 -0.4035
vn 0.5081 -0.8482 -0.1494
vn -0.5081 -0.8482 -0.1494
vn -0.8738 -0.4772 -0.0939
vn -0.9996 0.0214 -0.0193
vn -0.8572 0.5147 0.0202
vn -0.4904 0.8708 0.0343
vn -0.0000 0.9992 0.0395
vn 0.4904 0.8708 0.0343
vn 0.8572 0.5147 0.0202
vn 0.9998 0.0175 0.0007
vn 0.8724 -0.4885 -0.0187
vn -0.0000 -0.9854 -0.1700
vn 0.5055 -0.8622 -0.0328
vn -0.5055 -0.8622 -0.0328
vn -0.8724 -0.4885 -0.0187
vn -0.9998 0.0175 0.0007
vn -0.0000 0.9971 -0.0765
vn -0.0000 -0.9993 -0.0380
vn -0.0000 -0.0669 -0.9978
vn 0.3469 0.4220 -0.8376
vn -0.0000 0.9857 0.1685
vn -0.0379 0.9951 0.0915
vn -0.0000 0.9951 0.0991
vn -0.0000 0.4220 0.9066
vn -0.3469 0.4220 0.8376
vn -0.0000 0.4220 -0.9066
vn 0.3469 0.4220 0.8376
vn -0.3469 0.4220 -0.8376
vn 0.6411 0.4220 0.6411
vn -0.6411 0.4220 -0.6411
vn 0.8376 0.4220 0.3469
vn -0.8376 0.4220 -0.3469
vn 0.9066 0.4220 -0.0000
vn -0.9066 0.4220 -0.0000
vn 0.8376 0.4220 -0.3469
vn -0.8376 0.4220 0.3469
vn 0.6411 0.4220 -0.6411
vn -0.6411 0.4220 0.6411
vn -0.0000 0.9039 0.4277
vn 0.1637 0.9039 0.3951
vn 0.3024 0.9039 0.3024
vn 0.3951 0.9039 0.1637
vn 0.4277 0.9039 -0.0000
vn 0.3951 0.9039 -0.1637
vn 0.3024 0.9039 -0.3024
vn 0.1637 0.9039 -0.3951
vn -0.0000 0.9039 -0.4277
vn -0.1637 0.9039 -0.3951
vn -0.3024 0.9039 -0.3024
vn -0.3951 0.9039 -0.1637
vn -0.4277 0.9039 -0.0000
vn -0.3951 0.9039 0.1637
vn -0.3024 0.9039 0.3024
vn -0.1637 0.9039 0.3951
vn 0.0379 0.9951 0.0915
vn 0.0701 0.9951 0.0701
vn 0.0915 0.9951 0.0379
vn 0.0991 0.9951 -0.0000
vn 0.0915 0.9951 -0.0379
vn 0.0701 0.9951 -0.0701
vn 0.0379 0.9951 -0.0915
vn -0.0000 0.9951 -0.0991
vn -0.0379 0.9951 -0.0915
vn -0.0701 0.9951 -0.0701
vn -0.0915 0.9951 -0.0379
vn -0.0991 0.9951 -0.0000
vn -0.0915 0.9951 0.0379
vn -0.0701 0.9951 0.0701
vn -0.0000 0.2034 0.9791
vn -0.2515 -0.7538 0.6071
vn -0.3747 0.2034 0.9046
vn 0.9046 0.2034 0.3747
vn 0.4647 -0.7538 0.4647
vn 0.6923 0.2034 0.6923
vn 0.9791 0.2034 -0.0000
vn 0.6071 -0.7538 0.2515
vn 0.6071 -0.7538 -0.2515
vn 0.6571 -0.7538 -0.0000
vn 0.9046 0.2034 -0.3747
vn 0.4647 -0.7538 -0.4647
vn 0.6923 0.2034 -0.6923
vn 0.2515 -0.7538 -0.6071
vn 0.3747 0.2034 -0.9046
vn -0.0000 -0.7538 -0.6571
vn -0.0000 0.2034 -0.9791
vn -0.2515 -0.7538 -0.6071
vn -0.3747 0.2034 -0.9046
vn -0.4647 -0.7538 -0.4647
vn -0.6923 0.2034 -0.6923
vn -0.6071 -0.7538 -0.2515
vn -0.9046 0.2034 -0.3747
vn -0.6572 -0.7538 -0.0000
vn -0.9046 0.2034 0.3747
vn -0.9791 0.2034 -0.0000
vn -0.6923 0.2034 0.6923
vn -0.6071 -0.7538 0.2515
vn -0.4647 -0.7538 0.4647
vn 0.2515 -0.7538 0.6071
vn 0.3747 0.2034 0.9046
vn 0.6894 -0.6657 -0.2856
vn -0.0000 -0.7538 0.6571
vn -0.0000 0.9857 -0.1685
vn -0.0645 0.9857 -0.1557
vn 0.0645 0.9857 0.1557
vn 0.1191 0.9857 0.1191
vn -0.1191 0.9857 -0.1191
vn 0.1556 0.9857 0.0645
vn -0.1556 0.9857 -0.0645
vn 0.1685 0.9857 -0.0000
vn -0.1685 0.9857 -0.0000
vn 0.1556 0.9857 -0.0645
vn -0.1556 0.9857 0.0645
vn 0.1191 0.9857 -0.1191
vn -0.1191 0.9857 0.1191
vn 0.0645 0.9857 -0.1556
vn -0.0645 0.9857 0.1556
vn -0.7462 -0.6657 -0.0000
vn -0.9064 0.1938 -0.3754
vn -0.6894 -0.6657 -0.2856
vn -0.5276 -0.6657 0.5276
vn -0.6894 -0.6657 0.2856
vn 0.2856 -0.6657 -0.6894
vn 0.5276 -0.6657 -0.5276
vn -0.0000 -0.6657 -0.7462
vn -0.0000 -0.6657 0.7462
vn -0.2856 -0.6657 0.6894
vn 0.2856 -0.6657 0.6894
vn -0.2856 -0.6657 -0.6894
vn 0.6894 -0.6657 0.2856
vn 0.5276 -0.6657 0.5276
vn -0.5276 -0.6657 -0.5276
vn 0.7462 -0.6657 -0.0000
vn -0.0000 0.1938 0.9810
vn -0.3754 0.1938 0.9064
vn 0.9810 0.1938 -0.0000
vn -0.9064 0.1938 0.3754
vn -0.9810 0.1938 -0.0000
vn 0.9064 0.1938 -0.3754
vn -0.6937 0.1938 0.6937
vn 0.6937 0.1938 -0.6937
vn 0.3754 0.1938 -0.9064
vn -0.0000 0.1938 -0.9810
vn -0.0000 0.9767 0.2146
vn 0.2146 0.9767 -0.0000
vn -0.0000 0.9767 -0.2146
vn 0.6937 0.1938 0.6937
vn 0.3754 0.1938 0.9064
vn -0.3754 0.1938 -0.9064
vn 0.9064 0.1938 0.3754
vn -0.6937 0.1938 -0.6937
vn 0.0821 0.9767 0.1983
vn -0.0000 0.6889 0.7249
vn 0.2774 0.6889 0.6697
vn 0.1518 0.9767 0.1518
vn 0.5126 0.6889 0.5126
vn 0.6697 0.6889 0.2774
vn 0.1983 0.9767 0.0821
vn 0.7249 0.6889 -0.0000
vn 0.6697 0.6889 -0.2774
vn 0.1983 0.9767 -0.0821
vn 0.5126 0.6889 -0.5126
vn 0.1518 0.9767 -0.1518
vn 0.2774 0.6889 -0.6697
vn 0.0821 0.9767 -0.1983
vn -0.0000 0.6889 -0.7249
vn -0.2774 0.6889 -0.6697
vn -0.0821 0.9767 -0.1983
vn -0.5126 0.6889 -0.5126
vn -0.1518 0.9767 -0.1518
vn -0.1983 0.9767 -0.0821
vn -0.6697 0.6889 -0.2774
vn -0.2146 0.9767 -0.0000
vn -0.7249 0.6889 -0.0000
vn -0.6697 0.6889 0.2774
vn -0.1983 0.9767 0.0821
vn -0.1518 0.9767 0.1518
vn -0.5126 0.6889 0.5126
vn -0.2774 0.6889 0.6697
vn -0.0821 0.9767 0.1983
vn 0.2589 0.7365 0.6249
vn -0.0000 0.7365 0.6764
vn 0.4783 0.7365 0.4783
vn 0.6249 0.7365 0.2589
vn 0.6764 0.7365 -0.0000
vn 0.6249 0.7365 -0.2589
vn 0.4783 0.7365 -0.4783
vn 0.2589 0.7365 -0.6249
vn -0.0000 0.7365 -0.6764
vn -0.2589 0.7365 -0.6249
vn -0.4783 0.7365 -0.4783
vn -0.6249 0.7365 -0.2589
vn -0.6764 0.7365 -0.0000
vn -0.6249 0.7365 0.2589
vn -0.4783 0.7365 0.4783
vn -0.2589 0.7365 0.6249
vn -0.0000 -1.0000 -0.0000
vn -0.4952 -0.8442 -0.2051
vn -0.3790 -0.8442 -0.3790
vn 0.5360 -0.8442 -0.0000
vn 0.4952 -0.8442 0.2051
vn -0.5360 -0.8442 -0.0000
vn 0.4952 -0.8442 -0.2051
vn -0.4952 -0.8442 0.2051
vn 0.3790 -0.8442 -0.3790
vn -0.3790 -0.8442 0.3790
vn 0.2051 -0.8442 -0.4952
vn -0.2051 -0.8442 0.4952
vn -0.0000 -0.8442 -0.5360
vn 0.2051 -0.8442 0.4952
vn -0.0000 -0.8442 0.5360
vn -0.2051 -0.8442 -0.4952
vn 0.3790 -0.8442 0.3790
s 1
f 629//1 17//2 5//3
f 23//4 38//5 22//6
f 2//7 10//8 625//9
f 630//10 18//11 629//1
f 2//7 12//12 11//13
f 630//10 20//14 19//15
f 627//16 12//12 626//17
f 6//18 20//14 631//19
f 627//16 14//20 13//21
f 7//22 21//23 6//18
f 3//24 15//25 14//20
f 632//26 22//6 7//22
f 628//27 15//25 4//28
f 624//29 9//30 8//31
f 632//26 8//31 23//4
f 5//3 16//32 628//27
f 625//9 9//30 1//33
f 49//34 99//35 98//36
f 16//32 31//37 15//25
f 8//31 25//38 24//39
f 23//4 24//39 39//40
f 17//2 32//41 16//32
f 10//8 25//38 9//30
f 17//2 34//42 33//43
f 10//8 27//44 26//45
f 19//15 34//42 18//11
f 11//13 28//46 27//44
f 20//14 35//47 19//15
f 13//21 28//46 12//12
f 20//14 37//48 36//49
f 14//20 29//50 13//21
f 21//23 38//5 37//48
f 14//20 31//37 30//51
f 54//52 106//53 55//54
f 48//55 100//56 99//35
f 63//57 107//58 54//52
f 66//59 100//56 60//60
f 69//61 108//62 63//57
f 66//59 102//63 101//64
f 75//65 95//66 76//67
f 76//67 109//68 69//61
f 81//69 102//63 72//70
f 75//65 96//71 94//72
f 81//69 104//73 103//74
f 90//75 96//71 84//76
f 87//77 105//78 104//73
f 49//34 97//79 90//75
f 55//54 105//78 93//80
f 36//49 91//81 35//47
f 57//82 92//83 91//81
f 92//83 55//54 93//80
f 27//44 51//84 88//85
f 88//85 50//86 89//87
f 89//87 49//34 90//75
f 35//47 85//88 34//42
f 91//81 86//89 85//88
f 92//83 87//77 86//89
f 26//45 88//85 82//90
f 88//85 83//91 82//90
f 89//87 84//76 83//91
f 34//42 79//92 33//43
f 79//92 86//89 80//93
f 80//93 87//77 81//69
f 26//45 73//94 25//38
f 82//90 74//95 73//94
f 83//91 75//65 74//95
f 32//41 79//92 70//96
f 79//92 71//97 70//96
f 80//93 72//70 71//97
f 39//40 78//98 67//99
f 78//98 68//100 67//99
f 77//101 69//61 68//100
f 24//39 73//94 78//98
f 73//94 77//101 78//98
f 74//95 76//67 77//101
f 32//41 64//102 31//37
f 70//96 65//103 64//102
f 71//97 66//59 65//103
f 39//40 61//104 38//5
f 67//99 62//105 61//104
f 62//105 69//61 63//57
f 31//37 58//106 30//51
f 58//106 65//103 59//107
f 65//103 60//60 59//107
f 38//5 52//108 37//48
f 61//104 53//109 52//108
f 53//109 63//57 54//52
f 30//51 46//110 29//50
f 58//106 47//111 46//110
f 47//111 60//60 48//55
f 36//49 52//108 57//82
f 52//108 56//112 57//82
f 53//109 55//54 56//112
f 29//50 51//84 28//46
f 46//110 50//86 51//84
f 47//111 49//34 50//86
f 422//113 94//72 423//113
f 40//113 94//72 96//71
f 40//113 97//79 424//113
f 425//113 97//79 98//36
f 425//113 99//35 426//113
f 426//113 100//56 427//113
f 427//113 101//64 428//113
f 428//113 102//63 41//113
f 41//113 103//74 429//113
f 429//113 104//73 42//113
f 42//113 105//78 43//113
f 43//113 106//53 430//113
f 44//113 106//53 107//58
f 44//113 108//62 45//113
f 431//113 108//62 109//68
f 431//113 95//66 422//113
f 629//1 18//11 17//2
f 23//4 39//40 38//5
f 2//7 11//13 10//8
f 630//10 19//15 18//11
f 2//7 626//17 12//12
f 630//10 631//19 20//14
f 627//16 13//21 12//12
f 6//18 21//23 20//14
f 627//16 3//24 14//20
f 7//22 22//6 21//23
f 3//24 4//28 15//25
f 632//26 23//4 22//6
f 628//27 16//32 15//25
f 624//29 1//33 9//30
f 632//26 624//29 8//31
f 5//3 17//2 16//32
f 625//9 10//8 9//30
f 49//34 48//55 99//35
f 16//32 32//41 31//37
f 8//31 9//30 25//38
f 23//4 8//31 24//39
f 17//2 33//43 32//41
f 10//8 26//45 25//38
f 17//2 18//11 34//42
f 10//8 11//13 27//44
f 19//15 35//47 34//42
f 11//13 12//12 28//46
f 20//14 36//49 35//47
f 13//21 29//50 28//46
f 20//14 21//23 37//48
f 14//20 30//51 29//50
f 21//23 22//6 38//5
f 14//20 15//25 31//37
f 54//52 107//58 106//53
f 48//55 60//60 100//56
f 63//57 108//62 107//58
f 66//59 101//64 100//56
f 69//61 109//68 108//62
f 66//59 72//70 102//63
f 75//65 94//72 95//66
f 76//67 95//66 109//68
f 81//69 103//74 102//63
f 75//65 84//76 96//71
f 81//69 87//77 104//73
f 90//75 97//79 96//71
f 87//77 93//80 105//78
f 49//34 98//36 97//79
f 55//54 106//53 105//78
f 36//49 57//82 91//81
f 57//82 56//112 92//83
f 92//83 56//112 55//54
f 27//44 28//46 51//84
f 88//85 51//84 50//86
f 89//87 50//86 49//34
f 35//47 91//81 85//88
f 91//81 92//83 86//89
f 92//83 93//80 87//77
f 26//45 27//44 88//85
f 88//85 89//87 83//91
f 89//87 90//75 84//76
f 34//42 85//88 79//92
f 79//92 85//88 86//89
f 80//93 86//89 87//77
f 26//45 82//90 73//94
f 82//90 83//91 74//95
f 83//91 84//76 75//65
f 32//41 33//43 79//92
f 79//92 80//93 71//97
f 80//93 81//69 72//70
f 39//40 24//39 78//98
f 78//98 77//101 68//100
f 77//101 76//67 69//61
f 24//39 25//38 73//94
f 73//94 74//95 77//101
f 74//95 75//65 76//67
f 32//41 70//96 64//102
f 70//96 71//97 65//103
f 71//97 72//70 66//59
f 39//40 67//99 61//104
f 67//99 68//100 62//105
f 62//105 68//100 69//61
f 31//37 64//102 58//106
f 58//106 64//102 65//103
f 65//103 66//59 60//60
f 38//5 61//104 52//108
f 61//104 62//105 53//109
f 53//109 62//105 63//57
f 30//51 58//106 46//110
f 58//106 59//107 47//111
f 47//111 59//107 60//60
f 36//49 37//48 52//108
f 52//108 53//109 56//112
f 53//109 54//52 55//54
f 29//50 46//110 51//84
f 46//110 47//111 50//86
f 47//111 48//55 49//34
f 422//113 95//66 94//72
f 40//113 423//113 94//72
f 40//113 96//71 97//79
f 425//113 424//113 97//79
f 425//113 98//36 99//35
f 426//113 99//35 100//56
f 427//113 100//56 101//64
f 428//113 101//64 102//63
f 41//113 102//63 103//74
f 429//113 103//74 104//73
f 42//113 104//73 105//78
f 43//113 105//78 106//53
f 44//113 430//113 106//53
f 44//113 107//58 108//62
f 431//113 45//113 108//62
f 431//113 109//68 95//66
f 110//114 133//115 121//116
f 111//117 122//118 110//114
f 112//119 123//120 111//117
f 125//121 112//119 113//122
f 126//123 113//122 114//124
f 127//125 114//124 115//126
f 128//127 115//126 116//128
f 129//129 116//128 117//130
f 130//131 117//130 118//132
f 119//133 130//131 118//132
f 120//134 131//135 119//133
f 121//116 132//136 120//134
f 122//118 145//137 133//115
f 123//120 134//138 122//118
f 124//139 135//140 123//120
f 137//141 124//139 125//121
f 138//142 125//121 126//123
f 139//143 126//123 127//125
f 140//144 127//125 128//127
f 141//145 128//127 129//129
f 142//146 129//129 130//131
f 131//135 142//146 130//131
f 132//136 143//147 131//135
f 133//115 144//148 132//136
f 134//138 157//149 145//137
f 135//140 146//150 134//138
f 136//151 147//152 135//140
f 149//153 136//151 137//141
f 150//154 137//141 138//142
f 151//155 138//142 139//143
f 152//156 139//143 140//144
f 153//157 140//144 141//145
f 154//158 141//145 142//146
f 143//147 154//158 142//146
f 144//148 155//159 143//147
f 145//137 156//160 144//148
f 146//150 169//161 157//149
f 147//152 158//162 146//150
f 148//163 159//164 147//152
f 161//165 148//163 149//153
f 162//166 149//153 150//154
f 163//167 150//154 151//155
f 164//168 151//155 152//156
f 165//169 152//156 153//157
f 166//170 153//157 154//158
f 155//159 166//170 154//158
f 156//160 167//171 155//159
f 157//149 168//172 156//160
f 158//162 181//173 169//161
f 159//164 170//174 158//162
f 160//175 171//176 159//164
f 173//177 160//175 161//165
f 174//178 161//165 162//166
f 175//179 162//166 163//167
f 176//180 163//167 164//168
f 177//181 164//168 165//169
f 178//182 165//169 166//170
f 167//171 178//182 166//170
f 168//172 179//183 167//171
f 169//161 180//184 168//172
f 170//174 193//185 181//173
f 171//176 182//186 170//174
f 172//187 183//188 171//176
f 185//189 172//187 173//177
f 186//190 173//177 174//178
f 187//191 174//178 175//179
f 188//192 175//179 176//180
f 189//193 176//180 177//181
f 190//194 177//181 178//182
f 179//183 190//194 178//182
f 180//184 191//195 179//183
f 181//173 192//196 180//184
f 194//197 193//185 182//186
f 195//198 182//186 183//188
f 196//199 183//188 184//200
f 185//189 196//199 184//200
f 186//190 197//201 185//189
f 187//191 198//202 186//190
f 188//192 199//203 187//191
f 189//193 200//204 188//192
f 190//194 201//205 189//193
f 203//206 190//194 191//195
f 204//207 191//195 192//196
f 205//208 192//196 193//185
f 206//209 205//208 194//197
f 207//210 194//197 195//198
f 208//211 195//198 196//199
f 197//201 208//211 196//199
f 198//202 209//212 197//201
f 199//203 210//213 198//202
f 200//204 211//214 199//203
f 201//205 212//215 200//204
f 202//216 213//217 201//205
f 215//218 202//216 203//206
f 216//219 203//206 204//207
f 217//220 204//207 205//208
f 218//221 217//220 206//209
f 219//222 206//209 207//210
f 220//223 207//210 208//211
f 209//212 220//223 208//211
f 210//213 221//224 209//212
f 211//214 222//225 210//213
f 212//215 223//226 211//214
f 213//217 224//227 212//215
f 214//228 225//229 213//217
f 227//230 214//228 215//218
f 228//231 215//218 216//219
f 229//232 216//219 217//220
f 230//233 229//232 218//221
f 231//234 218//221 219//222
f 232//235 219//222 220//223
f 221//224 232//235 220//223
f 222//225 233//236 221//224
f 223//226 234//237 222//225
f 224//227 235//238 223//226
f 225//229 236//239 224//227
f 226//240 237//241 225//229
f 239//242 226//240 227//230
f 240//243 227//230 228//231
f 241//244 228//231 229//232
f 242//245 241//244 230//233
f 243//246 230//233 231//234
f 244//247 231//234 232//235
f 233//236 244//247 232//235
f 234//237 245//248 233//236
f 235//238 246//249 234//237
f 236//239 247//250 235//238
f 237//241 248//251 236//239
f 238//252 249//253 237//241
f 251//254 238//252 239//242
f 252//255 239//242 240//243
f 253//256 240//243 241//244
f 254//257 253//256 242//245
f 255//258 242//245 243//246
f 256//259 243//246 244//247
f 245//248 256//259 244//247
f 246//249 257//260 245//248
f 247//250 258//261 246//249
f 248//251 259//262 247//250
f 249//253 260//263 248//251
f 250//264 261//265 249//253
f 263//266 250//264 251//254
f 264//267 251//254 252//255
f 265//268 252//255 253//256
f 266//269 289//270 277//271
f 267//272 278//273 266//269
f 268//274 279//275 267//272
f 281//276 268//274 269//277
f 282//278 269//277 270//279
f 283//280 270//279 271//281
f 284//282 271//281 272//283
f 285//284 272//283 273//285
f 286//286 273//285 274//287
f 275//288 286//286 274//287
f 276//289 287//290 275//288
f 277//271 288//291 276//289
f 278//273 301//292 289//270
f 279//275 290//293 278//273
f 280//294 291//295 279//275
f 293//296 280//294 281//276
f 294//297 281//276 282//278
f 295//298 282//278 283//280
f 296//299 283//280 284//282
f 297//300 284//282 285//284
f 298//301 285//284 286//286
f 287//290 298//301 286//286
f 288//291 299//302 287//290
f 289//270 300//303 288//291
f 290//293 313//304 301//292
f 291//295 302//305 290//293
f 292//306 303//307 291//295
f 305//308 292//306 293//296
f 306//309 293//296 294//297
f 307//310 294//297 295//298
f 308//311 295//298 296//299
f 309//312 296//299 297//300
f 310//313 297//300 298//301
f 299//302 310//313 298//301
f 300//303 311//314 299//302
f 301//292 312//315 300//303
f 302//305 325//316 313//304
f 303//307 314//317 302//305
f 304//318 315//319 303//307
f 317//320 304//318 305//308
f 318//321 305//308 306//309
f 319//322 306//309 307//310
f 320//323 307//310 308//311
f 321//324 308//311 309//312
f 322//325 309//312 310//313
f 311//314 322//325 310//313
f 312//315 323//326 311//314
f 313//304 324//327 312//315
f 314//317 337//328 325//316
f 315//319 326//329 314//317
f 316//330 327//331 315//319
f 329//332 316//330 317//320
f 330//333 317//320 318//321
f 331//334 318//321 319//322
f 332//335 319//322 320//323
f 333//336 320//323 321//324
f 334//337 321//324 322//325
f 323//326 334//337 322//325
f 324//327 335//338 323//326
f 325//316 336//339 324//327
f 326//329 349//340 337//328
f 327//331 338//341 326//329
f 328//342 339//343 327//331
f 341//344 328//342 329//332
f 342//345 329//332 330//333
f 343//346 330//333 331//334
f 344//347 331//334 332//335
f 333//336 344//347 332//335
f 334//337 345//348 333//336
f 347//349 334//337 335//338
f 348//350 335//338 336//339
f 337//328 348//350 336//339
f 350//351 349//340 338//341
f 351//352 338//341 339//343
f 352//353 339//343 340//354
f 341//344 352//353 340//354
f 342//345 353//355 341//344
f 343//346 354//356 342//345
f 344//347 355//357 343//346
f 345//348 356//358 344//347
f 346//359 357//360 345//348
f 359//361 346//359 347//349
f 360//362 347//349 348//350
f 361//363 348//350 349//340
f 362//364 361//363 350//351
f 363//365 350//351 351//352
f 364//366 351//352 352//353
f 353//355 364//366 352//353
f 354//356 365//367 353//355
f 355//357 366//368 354//356
f 356//358 367//369 355//357
f 357//360 368//370 356//358
f 358//371 369//372 357//360
f 371//373 358//371 359//361
f 372//374 359//361 360//362
f 373//375 360//362 361//363
f 374//376 373//375 362//364
f 375//377 362//364 363//365
f 376//378 363//365 364//366
f 365//367 376//378 364//366
f 366//368 377//379 365//367
f 367//369 378//380 366//368
f 368//370 379//381 367//369
f 369//372 380//382 368//370
f 370//383 381//384 369//372
f 383//385 370//383 371//373
f 384//386 371//373 372//374
f 385//387 372//374 373//375
f 386//388 385//387 374//376
f 387//389 374//376 375//377
f 388//390 375//377 376//378
f 377//379 388//390 376//378
f 378//380 389//391 377//379
f 379//381 390//392 378//380
f 380//382 391//393 379//381
f 381//384 392//394 380//382
f 382//395 393//396 381//384
f 395//397 382//395 383//385
f 396//398 383//385 384//386
f 397//399 384//386 385//387
f 398//400 397//399 386//388
f 399//401 386//388 387//389
f 400//402 387//389 388//390
f 389//391 400//402 388//390
f 390//392 401//403 389//391
f 391//393 402//404 390//392
f 392//394 403//405 391//393
f 393//396 404//406 392//394
f 394//407 405//408 393//396
f 407//409 394//407 395//397
f 408//410 395//397 396//398
f 409//411 396//398 397//399
f 410//412 409//411 398//400
f 411//413 398//400 399//401
f 412//414 399//401 400//402
f 401//403 412//414 400//402
f 402//404 413//415 401//403
f 403//405 414//416 402//404
f 404//406 415//417 403//405
f 405//408 416//418 404//406
f 406//419 417//420 405//408
f 419//421 406//419 407//409
f 420//422 407//409 408//410
f 421//423 408//410 409//411
f 110//114 122//118 133//115
f 111//117 123//120 122//118
f 112//119 124//139 123//120
f 125//121 124//139 112//119
f 126//123 125//121 113//122
f 127//125 126//123 114//124
f 128//127 127//125 115//126
f 129//129 128//127 116//128
f 130//131 129//129 117//130
f 119//133 131//135 130//131
f 120//134 132//136 131//135
f 121//116 133//115 132//136
f 122//118 134//138 145//137
f 123//120 135//140 134//138
f 124//139 136//151 135//140
f 137//141 136//151 124//139
f 138//142 137//141 125//121
f 139//143 138//142 126//123
f 140//144 139//143 127//125
f 141//145 140//144 128//127
f 142//146 141//145 129//129
f 131//135 143//147 142//146
f 132//136 144//148 143//147
f 133//115 145//137 144//148
f 134//138 146//150 157//149
f 135//140 147//152 146//150
f 136//151 148//163 147//152
f 149//153 148//163 136//151
f 150//154 149//153 137//141
f 151//155 150//154 138//142
f 152//156 151//155 139//143
f 153//157 152//156 140//144
f 154//158 153//157 141//145
f 143//147 155//159 154//158
f 144//148 156//160 155//159
f 145//137 157//149 156//160
f 146//150 158//162 169//161
f 147//152 159//164 158//162
f 148//163 160//175 159//164
f 161//165 160//175 148//163
f 162//166 161//165 149//153
f 163//167 162//166 150//154
f 164//168 163//167 151//155
f 165//169 164//168 152//156
f 166//170 165//169 153//157
f 155//159 167//171 166//170
f 156//160 168//172 167//171
f 157//149 169//161 168//172
f 158//162 170//174 181//173
f 159//164 171//176 170//174
f 160//175 172//187 171//176
f 173//177 172//187 160//175
f 174//178 173//177 161//165
f 175//179 174//178 162//166
f 176//180 175//179 163//167
f 177//181 176//180 164//168
f 178//182 177//181 165//169
f 167//171 179//183 178//182
f 168//172 180//184 179//183
f 169//161 181//173 180//184
f 170//174 182//186 193//185
f 171//176 183//188 182//186
f 172//187 184//200 183//188
f 185//189 184//200 172//187
f 186//190 185//189 173//177
f 187//191 186//190 174//178
f 188//192 187//191 175//179
f 189//193 188//192 176//180
f 190//194 189//193 177//181
f 179//183 191//195 190//194
f 180//184 192//196 191//195
f 181//173 193//185 192//196
f 194//197 205//208 193//185
f 195//198 194//197 182//186
f 196//199 195//198 183//188
f 185//189 197//201 196//199
f 186//190 198//202 197//201
f 187//191 199//203 198//202
f 188//192 200//204 199//203
f 189//193 201//205 200//204
f 190//194 202//216 201//205
f 203//206 202//216 190//194
f 204//207 203//206 191//195
f 205//208 204//207 192//196
f 206//209 217//220 205//208
f 207//210 206//209 194//197
f 208//211 207//210 195//198
f 197//201 209//212 208//211
f 198//202 210//213 209//212
f 199//203 211//214 210//213
f 200//204 212//215 211//214
f 201//205 213//217 212//215
f 202//216 214//228 213//217
f 215//218 214//228 202//216
f 216//219 215//218 203//206
f 217//220 216//219 204//207
f 218//221 229//232 217//220
f 219//222 218//221 206//209
f 220//223 219//222 207//210
f 209//212 221//224 220//223
f 210//213 222//225 221//224
f 211//214 223//226 222//225
f 212//215 224//227 223//226
f 213//217 225//229 224//227
f 214//228 226//240 225//229
f 227//230 226//240 214//228
f 228//231 227//230 215//218
f 229//232 228//231 216//219
f 230//233 241//244 229//232
f 231//234 230//233 218//221
f 232//235 231//234 219//222
f 221//224 233//236 232//235
f 222//225 234//237 233//236
f 223//226 235//238 234//237
f 224//227 236//239 235//238
f 225//229 237//241 236//239
f 226//240 238//252 237//241
f 239//242 238//252 226//240
f 240//243 239//242 227//230
f 241//244 240//243 228//231
f 242//245 253//256 241//244
f 243//246 242//245 230//233
f 244//247 243//246 231//234
f 233//236 245//248 244//247
f 234//237 246//249 245//248
f 235//238 247//250 246//249
f 236//239 248//251 247//250
f 237//241 249//253 248//251
f 238//252 250//264 249//253
f 251//254 250//264 238//252
f 252//255 251//254 239//242
f 253//256 252//255 240//243
f 254//257 265//268 253//256
f 255//258 254//257 242//245
f 256//259 255//258 243//246
f 245//248 257//260 256//259
f 246//249 258//261 257//260
f 247//250 259//262 258//261
f 248//251 260//263 259//262
f 249//253 261//265 260//263
f 250//264 262//424 261//265
f 263//266 262//424 250//264
f 264//267 263//266 251//254
f 265//268 264//267 252//255
f 266//269 278//273 289//270
f 267//272 279//275 278//273
f 268//274 280//294 279//275
f 281//276 280//294 268//274
f 282//278 281//276 269//277
f 283//280 282//278 270//279
f 284//282 283//280 271//281
f 285//284 284//282 272//283
f 286//286 285//284 273//285
f 275//288 287//290 286//286
f 276//289 288//291 287//290
f 277//271 289//270 288//291
f 278//273 290//293 301//292
f 279//275 291//295 290//293
f 280//294 292//306 291//295
f 293//296 292//306 280//294
f 294//297 293//296 281//276
f 295//298 294//297 282//278
f 296//299 295//298 283//280
f 297//300 296//299 284//282
f 298//301 297//300 285//284
f 287//290 299//302 298//301
f 288//291 300//303 299//302
f 289//270 301//292 300//303
f 290//293 302//305 313//304
f 291//295 303//307 302//305
f 292//306 304//318 303//307
f 305//308 304//318 292//306
f 306//309 305//308 293//296
f 307//310 306//309 294//297
f 308//311 307//310 295//298
f 309//312 308//311 296//299
f 310//313 309//312 297//300
f 299//302 311//314 310//313
f 300//303 312//315 311//314
f 301//292 313//304 312//315
f 302//305 314//317 325//316
f 303//307 315//319 314//317
f 304//318 316//330 315//319
f 317//320 316//330 304//318
f 318//321 317//320 305//308
f 319//322 318//321 306//309
f 320//323 319//322 307//310
f 321//324 320//323 308//311
f 322//325 321//324 309//312
f 311//314 323//326 322//325
f 312//315 324//327 323//326
f 313//304 325//316 324//327
f 314//317 326//329 337//328
f 315//319 327//331 326//329
f 316//330 328//342 327//331
f 329//332 328//342 316//330
f 330//333 329//332 317//320
f 331//334 330//333 318//321
f 332//335 331//334 319//322
f 333//336 332//335 320//323
f 334//337 333//336 321//324
f 323//326 335//338 334//337
f 324//327 336//339 335//338
f 325//316 337//328 336//339
f 326//329 338//341 349//340
f 327//331 339//343 338//341
f 328//342 340//354 339//343
f 341//344 340//354 328//342
f 342//345 341//344 329//332
f 343//346 342//345 330//333
f 344//347 343//346 331//334
f 333//336 345//348 344//347
f 334//337 346//359 345//348
f 347//349 346//359 334//337
f 348//350 347//349 335//338
f 337//328 349//340 348//350
f 350//351 361//363 349//340
f 351//352 350//351 338//341
f 352//353 351//352 339//343
f 341//344 353//355 352//353
f 342//345 354//356 353//355
f 343//346 355//357 354//356
f 344//347 356//358 355//357
f 345//348 357//360 356//358
f 346//359 358//371 357//360
f 359//361 358//371 346//359
f 360//362 359//361 347//349
f 361//363 360//362 348//350
f 362//364 373//375 361//363
f 363//365 362//364 350//351
f 364//366 363//365 351//352
f 353//355 365//367 364//366
f 354//356 366//368 365//367
f 355//357 367//369 366//368
f 356//358 368//370 367//369
f 357//360 369//372 368//370
f 358//371 370//383 369//372
f 371//373 370//383 358//371
f 372//374 371//373 359//361
f 373//375 372//374 360//362
f 374//376 385//387 373//375
f 375//377 374//376 362//364
f 376//378 375//377 363//365
f 365//367 377//379 376//378
f 366//368 378//380 377//379
f 367//369 379//381 378//380
f 368//370 380//382 379//381
f 369//372 381//384 380//382
f 370//383 382//395 381//384
f 383//385 382//395 370//383
f 384//386 383//385 371//373
f 385//387 384//386 372//374
f 386//388 397//399 385//387
f 387//389 386//388 374//376
f 388//390 387//389 375//377
f 377//379 389//391 388//390
f 378//380 390//392 389//391
f 379//381 391//393 390//392
f 380//382 392//394 391//393
f 381//384 393//396 392//394
f 382//395 394//407 393//396
f 395//397 394//407 382//395
f 396//398 395//397 383//385
f 397//399 396//398 384//386
f 398//400 409//411 397//399
f 399//401 398//400 386//388
f 400//402 399//401 387//389
f 389//391 401//403 400//402
f 390//392 402//404 401//403
f 391//393 403//405 402//404
f 392//394 404//406 403//405
f 393//396 405//408 404//406
f 394//407 406//419 405//408
f 407//409 406//419 394//407
f 408//410 407//409 395//397
f 409//411 408//410 396//398
f 410//412 421//423 409//411
f 411//413 410//412 398//400
f 412//414 411//413 399//401
f 401//403 413//415 412//414
f 402//404 414//416 413//415
f 403//405 415//417 414//416
f 404//406 416//418 415//417
f 405//408 417//420 416//418
f 406//419 418//425 417//420
f 419//421 418//425 406//419
f 420//422 419//421 407//409
f 421//423 420//422 408//410
f 421//426 410//426 411//426 412//426 413//426 414//426 415//426 416//426 417//426 418//426 419//426 420//426
f 41//97 439//427 428//103
f 561//428 479//429 465//430
f 423//95 433//431 422//101
f 422//101 447//432 431//100
f 429//93 440//433 41//97
f 40//91 432//434 423//95
f 42//89 441//435 429//93
f 424//87 434//436 40//91
f 43//83 442//437 42//89
f 425//86 435//438 424//87
f 430//112 443//439 43//83
f 426//111 436//440 425//86
f 44//109 444//441 430//112
f 427//107 437//442 426//111
f 45//105 445//443 44//109
f 428//103 438//444 427//107
f 431//100 446//445 45//105
f 449//446 432//434 448//447
f 448//447 434//436 450//448
f 450//448 435//438 451//449
f 452//450 435//438 436//440
f 452//450 437//442 453//451
f 453//451 438//444 454//452
f 454//452 439//427 455//453
f 455//453 440//433 456//454
f 456//454 441//435 457//455
f 457//455 442//437 458//456
f 459//457 442//437 443//439
f 459//457 444//441 460//458
f 460//458 445//443 461//459
f 461//459 446//445 462//460
f 463//461 446//445 447//432
f 463//461 433//431 449//446
f 464//462 449//446 448//447
f 464//462 450//448 466//463
f 467//464 450//448 451//449
f 468//465 451//449 452//450
f 468//465 453//451 469//466
f 470//467 453//451 454//452
f 470//467 455//453 471//468
f 471//468 456//454 472//469
f 473//470 456//454 457//455
f 473//470 458//456 474//471
f 475//472 458//456 459//457
f 475//472 460//458 476//473
f 477//474 460//458 461//459
f 477//474 462//460 478//475
f 479//429 462//460 463//461
f 479//429 449//446 465//430
f 560//476 495//477 606//478
f 570//479 482//480 567//481
f 573//482 483//483 570//479
f 573//482 485//484 484//485
f 576//486 486//487 485//484
f 579//488 487//489 486//487
f 582//490 488//491 487//489
f 585//492 489//493 488//491
f 588//494 490//495 489//493
f 591//496 491//497 490//495
f 594//498 492//499 491//497
f 600//500 492//499 597//501
f 603//502 493//503 600//500
f 606//478 494//504 603//502
f 567//481 481//505 564//506
f 486//487 501//507 485//484
f 564//506 480//508 560//476
f 584//509 473//470 587//510
f 563//511 466//463 566//512
f 587//510 474//471 590//513
f 566//512 467//464 569//514
f 593//515 474//471 475//472
f 572//516 467//464 468//465
f 596//517 475//472 476//473
f 572//516 469//466 575//518
f 596//517 477//474 599//519
f 575//518 470//467 578//520
f 602//521 477//474 478//475
f 578//520 471//468 581//522
f 602//521 479//429 605//523
f 581//522 472//469 584//509
f 508//524 545//525 507//526
f 493//503 510//527 509//528
f 486//487 503//529 502//530
f 495//477 510//527 494//504
f 487//489 504//531 503//529
f 481//505 496//532 480//508
f 480//508 511//533 495//477
f 489//493 504//531 488//491
f 482//480 497//534 481//505
f 490//495 505//535 489//493
f 482//480 499//536 498//537
f 491//497 506//538 490//495
f 484//485 499//536 483//483
f 492//499 507//526 491//497
f 485//484 500//539 484//485
f 492//499 509//528 508//524
f 511//533 513//540 557//541
f 501//507 524//542 500//539
f 508//524 551//543 548//544
f 502//530 527//545 501//507
f 509//528 554//546 551//543
f 503//529 530//547 502//530
f 510//527 557//541 554//546
f 504//531 533//548 503//529
f 505//535 536//549 504//531
f 512//550 525//551 537//552
f 497//534 518//553 515//554
f 506//538 539//555 505//535
f 498//537 521//556 518//553
f 507//526 542//557 506//538
f 499//536 524//542 521//556
f 516//558 514//559 517//560
f 517//560 513//540 515//554
f 519//561 517//560 520//562
f 520//562 515//554 518//553
f 519//561 523//563 522//564
f 520//562 521//556 523//563
f 525//551 523//563 526//565
f 526//565 521//556 524//542
f 525//551 529//566 528//567
f 526//565 527//545 529//566
f 528//567 532//568 531//569
f 529//566 530//547 532//568
f 531//569 535//570 534//571
f 532//568 533//548 535//570
f 534//571 538//572 537//552
f 535//570 536//549 538//572
f 537//552 541//573 540//574
f 538//572 539//555 541//573
f 540//574 544//575 543//576
f 541//573 542//557 544//575
f 546//577 544//575 547//578
f 544//575 545//525 547//578
f 549//579 547//578 550//580
f 547//578 548//544 550//580
f 549//579 553//581 552//582
f 550//580 551//543 553//581
f 555//583 553//581 556//584
f 553//581 554//546 556//584
f 555//583 559//585 558//586
f 559//585 554//546 557//541
f 512//550 559//585 514//559
f 514//559 557//541 513//540
f 496//532 515//554 513//540
f 560//476 565//587 564//506
f 562//588 563//511 565//587
f 564//506 568//589 567//481
f 565//587 566//512 568//589
f 567//481 571//590 570//479
f 568//589 569//514 571//590
f 570//479 574//591 573//482
f 574//591 569//514 572//516
f 576//486 574//591 577//592
f 574//591 575//518 577//592
f 579//488 577//592 580//593
f 580//593 575//518 578//520
f 582//490 580//593 583//594
f 583//594 578//520 581//522
f 585//492 583//594 586//595
f 586//595 581//522 584//509
f 588//494 586//595 589//596
f 586//595 587//510 589//596
f 591//496 589//596 592//597
f 589//596 590//513 592//597
f 594//498 592//597 595//598
f 595//598 590//513 593//515
f 597//501 595//598 598//599
f 595//598 596//517 598//599
f 597//501 601//600 600//500
f 598//599 599//519 601//600
f 600//500 604//601 603//502
f 601//600 602//521 604//601
f 603//502 607//602 606//478
f 604//601 605//523 607//602
f 606//478 562//588 560//476
f 562//588 605//523 561//428
f 563//511 465//430 464//462
f 41//97 440//433 439//427
f 561//428 605//523 479//429
f 423//95 432//434 433//431
f 422//101 433//431 447//432
f 429//93 441//435 440//433
f 40//91 434//436 432//434
f 42//89 442//437 441//435
f 424//87 435//438 434//436
f 43//83 443//439 442//437
f 425//86 436//440 435//438
f 430//112 444//441 443//439
f 426//111 437//442 436//440
f 44//109 445//443 444//441
f 427//107 438//444 437//442
f 45//105 446//445 445//443
f 428//103 439//427 438//444
f 431//100 447//432 446//445
f 449//446 433//431 432//434
f 448//447 432//434 434//436
f 450//448 434//436 435//438
f 452//450 451//449 435//438
f 452//450 436//440 437//442
f 453//451 437//442 438//444
f 454//452 438//444 439//427
f 455//453 439//427 440//433
f 456//454 440//433 441//435
f 457//455 441//435 442//437
f 459//457 458//456 442//437
f 459//457 443//439 444//441
f 460//458 444//441 445//443
f 461//459 445//443 446//445
f 463//461 462//460 446//445
f 463//461 447//432 433//431
f 464//462 465//430 449//446
f 464//462 448//447 450//448
f 467//464 466//463 450//448
f 468//465 467//464 451//449
f 468//465 452//450 453//451
f 470//467 469//466 453//451
f 470//467 454//452 455//453
f 471//468 455//453 456//454
f 473//470 472//469 456//454
f 473//470 457//455 458//456
f 475//472 474//471 458//456
f 475//472 459//457 460//458
f 477//474 476//473 460//458
f 477//474 461//459 462//460
f 479//429 478//475 462//460
f 479//429 463//461 449//446
f 560//476 480//508 495//477
f 570//479 483//483 482//480
f 573//482 484//485 483//483
f 573//482 576//486 485//484
f 576//486 579//488 486//487
f 579//488 582//490 487//489
f 582//490 585//492 488//491
f 585//492 588//494 489//493
f 588//494 591//496 490//495
f 591//496 594//498 491//497
f 594//498 597//501 492//499
f 600//500 493//503 492//499
f 603//502 494//504 493//503
f 606//478 495//477 494//504
f 567//481 482//480 481//505
f 486//487 502//530 501//507
f 564//506 481//505 480//508
f 584//509 472//469 473//470
f 563//511 464//462 466//463
f 587//510 473//470 474//471
f 566//512 466//463 467//464
f 593//515 590//513 474//471
f 572//516 569//514 467//464
f 596//517 593//515 475//472
f 572//516 468//465 469//466
f 596//517 476//473 477//474
f 575//518 469//466 470//467
f 602//521 599//519 477//474
f 578//520 470//467 471//468
f 602//521 478//475 479//429
f 581//522 471//468 472//469
f 508//524 548//544 545//525
f 493//503 494//504 510//527
f 486//487 487//489 503//529
f 495//477 511//533 510//527
f 487//489 488//491 504//531
f 481//505 497//534 496//532
f 480//508 496//532 511//533
f 489//493 505//535 504//531
f 482//480 498//537 497//534
f 490//495 506//538 505//535
f 482//480 483//483 499//536
f 491//497 507//526 506//538
f 484//485 500//539 499//536
f 492//499 508//524 507//526
f 485//484 501//507 500//539
f 492//499 493//503 509//528
f 511//533 496//532 513//540
f 501//507 527//545 524//542
f 508//524 509//528 551//543
f 502//530 530//547 527//545
f 509//528 510//527 554//546
f 503//529 533//548 530//547
f 510//527 511//533 557//541
f 504//531 536//549 533//548
f 505//535 539//555 536//549
f 512//550 516//558 519//561
f 519//561 522//564 512//550
f 522//564 525//551 512//550
f 525//551 528//567 537//552
f 528//567 531//569 537//552
f 531//569 534//571 537//552
f 537//552 540//574 549//579
f 540//574 543//576 549//579
f 543//576 546//577 549//579
f 549//579 552//582 555//583
f 555//583 558//586 512//550
f 549//579 555//583 537//552
f 555//583 512//550 537//552
f 497//534 498//537 518//553
f 506//538 542//557 539//555
f 498//537 499//536 521//556
f 507//526 545//525 542//557
f 499//536 500//539 524//542
f 516//558 512//550 514//559
f 517//560 514//559 513//540
f 519//561 516//558 517//560
f 520//562 517//560 515//554
f 519//561 520//562 523//563
f 520//562 518//553 521//556
f 525//551 522//564 523//563
f 526//565 523//563 521//556
f 525//551 526//565 529//566
f 526//565 524//542 527//545
f 528//567 529//566 532//568
f 529//566 527//545 530//547
f 531//569 532//568 535//570
f 532//568 530//547 533//548
f 534//571 535//570 538//572
f 535//570 533//548 536//549
f 537//552 538//572 541//573
f 538//572 536//549 539//555
f 540//574 541//573 544//575
f 541//573 539//555 542//557
f 546//577 543//576 544//575
f 544//575 542//557 545//525
f 549//579 546//577 547//578
f 547//578 545//525 548//544
f 549//579 550//580 553//581
f 550//580 548//544 551//543
f 555//583 552//582 553//581
f 553//581 551//543 554//546
f 555//583 556//584 559//585
f 559//585 556//584 554//546
f 512//550 558//586 559//585
f 514//559 559//585 557//541
f 496//532 497//534 515//554
f 560//476 562//588 565//587
f 562//588 561//428 563//511
f 564//506 565//587 568//589
f 565//587 563//511 566//512
f 567//481 568//589 571//590
f 568//589 566//512 569//514
f 570//479 571//590 574//591
f 574//591 571//590 569//514
f 576//486 573//482 574//591
f 574//591 572//516 575//518
f 579//488 576//486 577//592
f 580//593 577//592 575//518
f 582//490 579//488 580//593
f 583//594 580//593 578//520
f 585//492 582//490 583//594
f 586//595 583//594 581//522
f 588//494 585//492 586//595
f 586//595 584//509 587//510
f 591//496 588//494 589//596
f 589//596 587//510 590//513
f 594//498 591//496 592//597
f 595//598 592//597 590//513
f 597//501 594//498 595//598
f 595//598 593//515 596//517
f 597//501 598//599 601//600
f 598//599 596//517 599//519
f 600//500 601//600 604//601
f 601//600 599//519 602//521
f 603//502 604//601 607//602
f 604//601 602//521 605//523
f 606//478 607//602 562//588
f 562//588 607//602 605//523
f 563//511 561//428 465//430
f 610//603 622//603 618//603
f 619//604 629//605 618//605
f 612//606 2//607 611//607
f 619//604 631//608 630//604
f 613//609 626//606 612//606
f 621//610 631//608 620//608
f 614//611 627//609 613//609
f 622//612 6//610 621//610
f 614//611 4//613 3//611
f 623//614 7//612 622//612
f 615//613 628//615 4//613
f 609//616 624//617 608//617
f 623//614 624//617 632//614
f 617//618 628//615 616//615
f 610//619 1//616 609//616
f 618//605 5//618 617//618
f 611//607 625//619 610//619
f 610//603 609//603 608//603
f 608//603 623//603 622//603
f 622//603 621//603 620//603
f 620//603 619//603 618//603
f 618//603 617//603 616//603
f 616//603 615//603 614//603
f 614//603 613//603 612//603
f 612//603 611//603 614//603
f 611//603 610//603 614//603
f 610//603 608//603 622//603
f 622//603 620//603 618//603
f 618//603 616//603 610//603
f 616//603 614//603 610//603
f 619//604 630//604 629//605
f 612//606 626//606 2//607
f 619//604 620//608 631//608
f 613//609 627//609 626//606
f 621//610 6//610 631//608
f 614//611 3//611 627//609
f 622//612 7//612 6//610
f 614//611 615//613 4//613
f 623//614 632//614 7//612
f 615//613 616//615 628//615
f 609//616 1//616 624//617
f 623//614 608//617 624//617
f 617//618 5//618 628//615
f 610//619 625//619 1//616
f 618//605 629//605 5//618
f 611//607 2//607 625//619
