# Blender 5.1.2
# www.blender.org
mtllib Telegraph.mtl
o Telegraph
v 0.146398 1.000000 -0.610796
v 0.610796 1.000000 -0.146398
v 0.536791 -0.000000 -1.000000
v 1.000000 -0.000000 -0.536791
v 0.610796 1.000000 0.146398
v 0.146398 1.000000 0.610796
v 1.000000 0.000000 0.536791
v 0.536791 0.000000 1.000000
v -0.610796 1.000000 -0.146398
v -0.146398 1.000000 -0.610796
v -1.000000 -0.000000 -0.536791
v -0.536791 -0.000000 -1.000000
v -0.146398 1.000000 0.610796
v -0.610796 1.000000 0.146398
v -0.536791 0.000000 1.000000
v -1.000000 0.000000 0.536791
v 0.610796 3.153101 0.147932
v 0.147932 3.153101 0.610795
v -0.147932 3.153101 0.610795
v -0.610796 3.153101 0.147932
v 0.147932 3.153101 -0.610797
v 0.610796 3.153101 -0.147933
v -0.610796 3.153101 -0.147933
v -0.147932 3.153101 -0.610797
v 0.806207 3.411979 0.345136
v 0.345137 3.411979 0.806207
v -0.345137 3.411979 0.806207
v -0.806207 3.411979 0.345136
v 0.345137 3.411978 -0.806208
v 0.806207 3.411979 -0.345138
v -0.806207 3.411979 -0.345138
v -0.345137 3.411978 -0.806208
v 0.346359 3.680825 0.806207
v 0.806207 3.680824 0.346359
v -0.806207 3.680824 0.346359
v -0.346359 3.680825 0.806207
v 0.806207 3.680824 -0.346360
v 0.346359 3.680824 -0.806208
v -0.346359 3.680824 -0.806208
v -0.806207 3.680824 -0.346360
v 1.000000 0.736398 0.535792
v 0.787835 1.000000 0.323362
v 0.323362 1.000000 0.787835
v 0.535793 0.736398 1.000000
v -0.535793 0.736398 1.000000
v -0.323362 1.000000 0.787835
v -0.787835 1.000000 0.323362
v -1.000000 0.736398 0.535792
v 0.535793 0.736398 -1.000000
v 0.323362 1.000000 -0.787836
v 0.787835 1.000000 -0.323362
v 1.000000 0.736398 -0.535793
v -1.000000 0.736398 -0.535793
v -0.787835 1.000000 -0.323362
v -0.323362 1.000000 -0.787836
v -0.535793 0.736398 -1.000000
v -0.311866 3.678059 0.525637
v -0.311866 3.769633 0.525637
v -0.311866 3.678059 -0.525638
v -0.311866 3.769633 -0.525638
v 0.311866 3.678059 0.525637
v 0.311866 3.769633 0.525637
v 0.311866 3.678059 -0.525638
v 0.311866 3.769633 -0.525638
v -0.064988 4.098899 0.636352
v -0.064988 4.162529 0.636352
v 0.064988 4.098899 0.636352
v 0.064988 4.162529 0.636352
v -0.064988 3.879192 -0.501453
v 0.064988 3.879192 -0.501453
v -0.109327 3.725943 -0.013970
v -0.109327 3.725943 -0.353488
v 0.109327 3.725943 -0.013970
v 0.109327 3.725943 -0.353488
v 0.063231 3.725943 -0.353488
v -0.063231 3.725943 -0.353488
v -0.063231 3.725943 -0.013970
v 0.063231 3.725943 -0.013970
v -0.109327 3.956951 -0.013970
v -0.109327 4.065461 -0.088127
v -0.109327 4.065461 -0.279331
v -0.109327 3.956951 -0.353488
v 0.109327 4.065461 -0.088127
v 0.109327 3.956951 -0.013970
v 0.109327 3.956951 -0.353488
v 0.109327 4.065461 -0.279331
v -0.063231 3.956951 -0.353488
v -0.063231 4.065461 -0.279331
v 0.063231 4.065461 -0.279331
v 0.063231 3.956951 -0.353488
v 0.063231 3.956951 -0.013970
v 0.063231 4.065461 -0.088127
v -0.063231 4.065461 -0.088127
v -0.063231 3.956951 -0.013970
v -0.064988 3.992641 -0.444252
v -0.064988 3.935337 -0.506188
v 0.064988 3.935337 -0.506188
v 0.064988 3.992641 -0.444252
v 0.000000 3.822617 -0.469330
v 0.031752 3.822617 -0.456178
v 0.044904 3.822617 -0.424426
v 0.031752 3.822617 -0.392674
v 0.000000 3.822617 -0.379522
v -0.031752 3.822617 -0.392674
v -0.044904 3.822617 -0.424426
v -0.031752 3.822617 -0.456178
v 0.000000 3.767488 -0.499929
v 0.053389 3.767488 -0.477815
v 0.075503 3.767488 -0.424426
v 0.053389 3.767488 -0.371038
v 0.000000 3.767488 -0.348923
v -0.053389 3.767488 -0.371038
v -0.075503 3.767488 -0.424426
v -0.053389 3.767488 -0.477815
v 0.053389 3.822617 -0.477815
v 0.000000 3.822617 -0.499929
v 0.075503 3.822617 -0.424426
v 0.053389 3.822617 -0.371038
v 0.000000 3.822617 -0.348923
v -0.053389 3.822617 -0.371038
v -0.075503 3.822617 -0.424426
v -0.053389 3.822617 -0.477815
v 0.016519 3.855672 -0.440945
v 0.000000 3.855672 -0.447788
v 0.023361 3.855672 -0.424426
v 0.016519 3.855672 -0.407907
v 0.000000 3.855672 -0.401065
v -0.016519 3.855672 -0.407907
v -0.023361 3.855672 -0.424426
v -0.016519 3.855672 -0.440945
v 0.031752 3.855672 -0.456178
v 0.000000 3.855672 -0.469330
v 0.044904 3.855672 -0.424426
v 0.031752 3.855672 -0.392674
v 0.000000 3.855672 -0.379522
v -0.031752 3.855672 -0.392674
v -0.044904 3.855672 -0.424426
v -0.031752 3.855672 -0.456178
v 0.022212 3.896657 -0.446638
v 0.000000 3.896657 -0.455839
v 0.031413 3.896657 -0.424426
v 0.022212 3.896657 -0.402214
v 0.000000 3.896657 -0.393014
v -0.022212 3.896657 -0.402214
v -0.031413 3.896657 -0.424426
v -0.022212 3.896657 -0.446638
v 0.094877 4.098899 0.672243
v -0.094877 4.098899 0.672243
v -0.094877 4.162529 0.672243
v 0.094877 4.162529 0.672243
v -0.050567 4.098899 0.863388
v -0.094877 4.098899 0.818899
v -0.094877 4.162529 0.818899
v -0.050567 4.162529 0.863388
v 0.050567 4.162529 0.863388
v 0.094877 4.162529 0.818899
v 0.094877 4.098899 0.818899
v 0.050567 4.098899 0.863388
v -0.029080 3.775575 0.502729
v 0.029080 3.775575 0.502729
v -0.029080 3.990113 -0.079614
v 0.029080 3.990113 -0.079614
v -0.029080 3.810681 0.315843
v -0.029080 3.898738 0.130494
v -0.029080 3.844587 0.218359
v 0.029080 3.898738 0.130494
v 0.029080 3.810681 0.315843
v 0.029080 3.844587 0.218359
v 0.029080 3.970101 -0.000612
v 0.029080 3.945194 0.061839
v -0.029080 3.970101 -0.000612
v -0.029080 3.945194 0.061839
vn -0.7071 -0.0005 0.7071
vn -0.7071 -0.0005 -0.7071
vn 0.7071 -0.0005 0.7071
vn 0.7071 -0.0005 -0.7071
vn -0.4822 -0.7314 0.4822
vn -0.4822 -0.7314 -0.4822
vn 0.4822 -0.7314 0.4822
vn 0.4822 -0.7314 -0.4822
vn -0.7071 -0.0032 -0.7071
vn 0.7071 -0.0032 -0.7071
vn 0.7071 -0.0032 0.7071
vn -0.7071 -0.0032 0.7071
vn 1.0000 -0.0000 -0.0000
vn -0.0000 -0.0000 -1.0000
vn -0.0000 -1.0000 -0.0000
vn -0.0000 -0.0000 1.0000
vn -1.0000 -0.0000 -0.0000
vn -0.0000 -0.6025 0.7981
vn 0.7981 -0.6025 -0.0000
vn -0.7981 -0.6025 -0.0000
vn -0.0000 -0.6025 -0.7981
vn -0.0000 1.0000 -0.0000
vn 0.4665 0.7515 -0.4665
vn -0.4665 0.7515 0.4665
vn 0.4665 0.7515 0.4665
vn -0.4665 0.7515 -0.4665
vn 0.7790 0.6270 -0.0000
vn -0.0000 0.6270 -0.7790
vn -0.0000 0.6270 0.7790
vn -0.7790 0.6270 -0.0000
vn 0.7071 0.0010 0.7071
vn -0.7071 0.0010 0.7071
vn 0.7071 0.0010 -0.7071
vn -0.7071 0.0010 -0.7071
vn -0.0000 -0.9970 0.0780
vn -0.0000 -0.9819 0.1896
vn -0.0000 0.5642 -0.8256
vn -0.0000 0.5642 0.8256
vn -0.0000 0.7340 -0.6791
vn -0.0000 -0.0840 -0.9965
vn -0.0000 0.9980 -0.0638
vn -0.0000 0.9879 -0.1553
vn 0.3827 -0.0000 -0.9239
vn 0.9239 -0.0000 -0.3827
vn 0.9239 -0.0000 0.3827
vn 0.3827 -0.0000 0.9239
vn -0.3827 -0.0000 0.9239
vn -0.9239 -0.0000 0.3827
vn -0.9239 -0.0000 -0.3827
vn -0.3827 -0.0000 -0.9239
vn -0.3765 -0.1786 -0.9090
vn -0.9090 -0.1786 0.3765
vn 0.3765 -0.1786 0.9090
vn 0.9090 -0.1786 -0.3765
vn -0.9090 -0.1786 -0.3765
vn -0.3765 -0.1786 0.9090
vn 0.9090 -0.1786 0.3765
vn 0.3765 -0.1786 -0.9090
vn 0.7684 -0.0000 -0.6399
vn -0.7684 -0.0000 -0.6399
vn -0.7085 -0.0000 0.7057
vn 0.7085 -0.0000 0.7057
vn -0.0000 0.8400 0.5427
vn -0.0000 0.8837 0.4681
vn -0.0000 0.9032 0.4291
vn -0.0000 0.9663 0.2573
vn -0.0000 0.9828 0.1846
vn -0.0000 0.9512 0.3087
vn -0.0000 0.9694 0.2455
vt 0.768300 0.701349
vt 0.768492 0.701349
vt 0.826350 0.643492
vt 0.826349 0.643300
vt 0.768492 0.548651
vt 0.768300 0.548651
vt 0.826349 0.606700
vt 0.826350 0.606508
vt 0.673651 0.643300
vt 0.673650 0.643491
vt 0.731509 0.701349
vt 0.731700 0.701350
vt 0.673650 0.606508
vt 0.673651 0.606700
vt 0.731700 0.548651
vt 0.731509 0.548651
vt 0.782685 0.701349
vt 0.826349 0.657685
vt 0.782685 0.548651
vt 0.826349 0.592315
vt 0.673651 0.657685
vt 0.717315 0.701350
vt 0.673651 0.592315
vt 0.717315 0.548650
vt 0.826349 0.592199
vt 0.782801 0.548651
vt 0.673651 0.592199
vt 0.717199 0.548651
vt 0.717199 0.701350
vt 0.673651 0.657801
vt 0.782801 0.701350
vt 0.826349 0.657801
vt 0.125000 0.557901
vt 0.182901 0.500000
vt 0.335983 0.481116
vt 0.375000 0.557901
vt 0.375000 0.692099
vt 0.335983 0.768884
vt 0.182901 0.750000
vt 0.125000 0.692099
vt 0.671024 0.478335
vt 0.651521 0.584580
vt 0.559100 0.558026
vt 0.560197 0.463641
vt 0.625000 0.000006
vt 0.625000 0.072002
vt 0.559099 0.058026
vt 0.559099 0.000000
vt 0.651521 0.665420
vt 0.671024 0.771665
vt 0.560197 0.786359
vt 0.559099 0.691974
vt 0.625000 0.178001
vt 0.626609 0.323608
vt 0.559099 0.308026
vt 0.559099 0.191974
vt 0.559100 0.941974
vt 0.628061 0.912359
vt 0.790420 0.723479
vt 0.375000 0.942099
vt 0.375000 0.000000
vt 0.375000 0.057901
vt 0.848479 0.665420
vt 0.848479 0.584580
vt 0.375000 0.192099
vt 0.790420 0.526521
vt 0.375000 0.307901
vt 0.625000 0.000000
vt 0.625000 0.250000
vt 0.375000 0.250000
vt 0.625000 0.500000
vt 0.375000 0.500000
vt 0.625000 0.750000
vt 0.375000 0.750000
vt 0.625000 1.000000
vt 0.375000 1.000000
vt 0.125000 0.500000
vt 0.125000 0.750000
vt 0.875000 0.500000
vt 0.875000 0.750000
vt 0.291667 0.500000
vt 0.291667 0.750000
vt 0.208333 0.500000
vt 0.208333 0.750000
vt 0.625000 0.416667
vt 0.625000 0.553480
vt 0.618674 0.500000
vt 0.618674 0.416667
vt 0.625000 0.916667
vt 0.618674 1.000000
vt 0.618674 0.916667
vt 0.625000 0.196564
vt 0.625000 0.333333
vt 0.618674 0.333333
vt 0.618674 0.250000
vt 0.625000 0.696520
vt 0.625000 0.833333
vt 0.618674 0.833333
vt 0.618674 0.750000
vt 0.375000 0.916667
vt 0.618674 0.000000
vt 0.625000 0.054604
vt 0.791667 0.554604
vt 0.875000 0.554604
vt 0.875000 0.695396
vt 0.791667 0.695396
vt 0.375000 0.333333
vt 0.708333 0.554604
vt 0.708333 0.695396
vt 0.375000 0.833333
vt 0.375000 0.416667
vt 0.000000 0.000000
vt 0.625000 0.235882
vt 0.625000 0.515013
vt 0.589677 0.500000
vt 0.589677 0.250000
vt 0.875000 0.515999
vt 1.000000 0.750000
vt 1.000000 1.000000
vt 0.875000 1.000000
vt 0.750000 1.000000
vt 0.750000 0.750000
vt 0.500000 1.000000
vt 0.500000 0.750000
vt 0.250000 1.000000
vt 0.250000 0.750000
vt 0.392735 0.250000
vt 0.350929 0.350929
vt 0.125000 1.000000
vt 0.000000 1.000000
vt 0.000000 0.750000
vt 0.250000 0.392735
vt 0.419706 0.419706
vt 0.250000 0.490000
vt 0.490000 0.250000
vt 0.350929 0.149071
vt 0.419706 0.080294
vt 0.250000 0.107265
vt 0.250000 0.010000
vt 0.149071 0.149071
vt 0.080294 0.080294
vt 0.107265 0.250000
vt 0.010000 0.250000
vt 0.149071 0.350929
vt 0.080294 0.419706
vt 0.250000 0.324259
vt 0.197491 0.302509
vt 0.302509 0.302509
vt 0.324259 0.250000
vt 0.302509 0.197491
vt 0.250000 0.175741
vt 0.197491 0.197491
vt 0.175741 0.250000
vt 0.875000 0.750000
vt 0.664646 0.768732
vt 0.335354 0.768732
vt 0.375000 0.750000
vt 0.625000 0.750000
vt 0.625000 0.941622
vt 0.375000 0.941622
vt 0.183378 0.750000
vt 0.816622 0.750000
vt 0.000000 0.639202
vt 1.000000 0.639202
vt 0.000000 0.500000
vt 1.000000 0.500000
vt 0.000000 0.320921
vt 1.000000 0.320921
vt 1.000000 0.000000
vt 1.000000 0.864337
vt 0.000000 0.864337
s 1
usemtl Material.001
f 13/1/1 19/2/1 20/3/1 14/4/1
f 24/5/2 10/6/2 9/7/2 23/8/2
f 5/9/3 17/10/3 18/11/3 6/12/3
f 22/13/4 2/14/4 1/15/4 21/16/4
f 19/2/5 27/17/5 28/18/5 20/3/5
f 32/19/6 24/5/6 23/8/6 31/20/6
f 17/10/7 25/21/7 26/22/7 18/11/7
f 30/23/8 22/13/8 21/16/8 29/24/8
f 31/20/9 40/25/9 39/26/9 32/19/9
f 37/27/10 30/23/10 29/24/10 38/28/10
f 33/29/11 26/22/11 25/21/11 34/30/11
f 27/17/12 36/31/12 35/32/12 28/18/12
f 5/9/13 2/14/13 22/13/13 17/10/13
f 1/15/14 10/6/14 24/5/14 21/16/14
f 11/33/15 12/34/15 3/35/15 4/36/15 7/37/15 8/38/15 15/39/15 16/40/15
f 13/1/16 6/12/16 18/11/16 19/2/16
f 9/7/17 14/4/17 20/3/17 23/8/17
f 19/2/18 18/11/18 26/22/18 27/17/18
f 17/10/19 22/13/19 30/23/19 25/21/19
f 23/8/20 20/3/20 28/18/20 31/20/20
f 21/16/21 24/5/21 32/19/21 29/24/21
f 27/17/16 26/22/16 33/29/16 36/31/16
f 25/21/13 30/23/13 37/27/13 34/30/13
f 31/20/17 28/18/17 35/32/17 40/25/17
f 29/24/14 32/19/14 39/26/14 38/28/14
f 37/27/22 38/28/22 39/26/22 40/25/22 35/32/22 36/31/22 33/29/22 34/30/22
f 50/41/23 51/42/23 52/43/23 49/44/23
f 46/45/24 47/46/24 48/47/24 45/48/24
f 42/49/25 43/50/25 44/51/25 41/52/25
f 54/53/26 55/54/26 56/55/26 53/56/26
f 41/52/27 52/43/27 51/42/27 42/49/27
f 49/44/28 56/55/28 55/54/28 50/41/28
f 45/57/29 44/51/29 43/50/29 46/58/29
f 53/56/30 48/47/30 47/46/30 54/53/30
f 42/49/22 5/9/22 6/12/22 43/50/22
f 2/14/22 5/9/22 42/49/22 51/42/22
f 44/51/31 8/38/31 7/37/31 41/52/31
f 4/36/13 52/43/13 41/52/13 7/37/13
f 6/12/22 13/1/22 46/59/22 43/50/22
f 8/38/16 44/51/16 45/57/16 15/60/16
f 15/61/32 45/48/32 48/47/32 16/62/32
f 14/4/22 47/63/22 46/59/22 13/1/22
f 14/4/22 9/7/22 54/64/22 47/63/22
f 16/62/17 48/47/17 53/56/17 11/65/17
f 50/41/22 1/15/22 2/14/22 51/42/22
f 10/6/22 1/15/22 50/41/22 55/66/22
f 52/43/33 4/36/33 3/35/33 49/44/33
f 12/67/14 56/55/14 49/44/14 3/35/14
f 10/6/22 55/66/22 54/64/22 9/7/22
f 56/55/34 12/67/34 11/65/34 53/56/34
f 57/61/17 58/68/17 60/69/17 59/70/17
f 59/70/14 60/69/14 64/71/14 63/72/14
f 63/72/13 64/71/13 62/73/13 61/74/13
f 61/74/16 62/73/16 58/75/16 57/76/16
f 59/77/15 63/72/15 61/74/15 57/78/15
f 64/71/22 60/79/22 58/80/22 62/73/22
f 65/78/35 69/77/36 70/72/36 67/74/35
f 75/81/15 74/72/15 73/74/15 78/82/15
f 72/77/15 76/83/15 77/84/15 71/78/15
f 89/85/37 86/86/37 85/87/37 90/88/37
f 93/89/38 80/75/38 79/90/38 94/91/38
f 81/92/37 88/93/37 87/94/37 82/95/37
f 83/96/38 92/97/38 91/98/38 84/99/38
f 77/100/16 94/91/16 79/90/16 71/76/16
f 71/61/17 79/101/17 80/102/17 81/92/17 82/95/17 72/70/17
f 88/103/22 81/104/22 80/105/22 93/106/22
f 72/70/14 82/95/14 87/94/14 76/107/14
f 86/86/22 89/108/22 92/109/22 83/96/22
f 74/72/13 85/87/13 86/86/13 83/96/13 84/99/13 73/74/13
f 73/74/16 84/99/16 91/98/16 78/110/16
f 75/111/14 90/88/14 85/87/14 74/72/14
f 76/112/13 87/112/13 88/112/13 93/112/13 94/112/13 77/112/13
f 78/112/17 91/112/17 92/112/17 89/112/17 90/112/17 75/112/17
f 95/113/39 98/114/39 97/115/39 96/116/39
f 66/68/17 95/113/17 96/116/17 69/70/17 65/61/17
f 69/70/40 96/116/40 97/115/40 70/72/40
f 68/73/41 98/114/42 95/117/42 66/80/41
f 67/74/13 70/72/13 97/115/13 98/114/13 68/73/13
f 107/118/43 116/119/43 115/120/43 108/80/43
f 108/80/44 115/120/44 117/121/44 109/122/44
f 109/122/45 117/121/45 118/75/45 110/73/45
f 110/73/46 118/75/46 119/123/46 111/124/46
f 111/124/47 119/123/47 120/76/47 112/74/47
f 112/74/48 120/76/48 121/125/48 113/126/48
f 101/127/44 100/128/44 131/128/44 133/127/44
f 113/126/49 121/125/49 122/129/49 114/78/49
f 114/78/50 122/129/50 116/130/50 107/131/50
f 99/132/22 100/128/22 115/133/22 116/134/22
f 100/128/22 101/127/22 117/135/22 115/133/22
f 101/127/22 102/136/22 118/137/22 117/135/22
f 102/136/22 103/138/22 119/139/22 118/137/22
f 103/138/22 104/140/22 120/141/22 119/139/22
f 104/140/22 105/142/22 121/143/22 120/141/22
f 105/142/22 106/144/22 122/145/22 121/143/22
f 106/144/22 99/132/22 116/134/22 122/145/22
f 124/146/51 130/147/51 146/147/51 140/146/51
f 106/144/49 105/142/49 137/142/49 138/144/49
f 104/140/47 103/138/47 135/138/47 136/140/47
f 102/136/45 101/127/45 133/127/45 134/136/45
f 100/128/43 99/132/43 132/132/43 131/128/43
f 99/132/50 106/144/50 138/144/50 132/132/50
f 105/142/48 104/140/48 136/140/48 137/142/48
f 103/138/46 102/136/46 134/136/46 135/138/46
f 124/146/22 123/148/22 131/128/22 132/132/22
f 123/148/22 125/149/22 133/127/22 131/128/22
f 125/149/22 126/150/22 134/136/22 133/127/22
f 126/150/22 127/151/22 135/138/22 134/136/22
f 127/151/22 128/152/22 136/140/22 135/138/22
f 128/152/22 129/153/22 137/142/22 136/140/22
f 129/153/22 130/147/22 138/144/22 137/142/22
f 130/147/22 124/146/22 132/132/22 138/144/22
f 139/148/22 140/146/22 146/147/22 145/153/22 144/152/22 143/151/22 142/150/22 141/149/22
f 129/153/52 128/152/52 144/152/52 145/153/52
f 127/151/53 126/150/53 142/150/53 143/151/53
f 125/149/54 123/148/54 139/148/54 141/149/54
f 130/147/55 129/153/55 145/153/55 146/147/55
f 128/152/56 127/151/56 143/151/56 144/152/56
f 126/150/57 125/149/57 141/149/57 142/150/57
f 123/148/58 124/146/58 140/146/58 139/148/58
f 67/74/59 68/73/59 150/73/59 147/74/59
f 68/73/41 66/80/41 149/154/22 150/73/22
f 66/68/60 65/61/60 148/61/60 149/68/60
f 65/78/35 67/74/35 147/74/15 148/78/15
f 151/61/61 154/68/61 153/68/61 152/61/61
f 155/155/62 158/156/62 157/157/62 156/158/62
f 149/68/17 148/61/17 152/61/17 153/68/17
f 158/156/16 155/155/16 154/159/16 151/160/16
f 148/78/15 147/74/15 157/157/15 158/156/15 151/161/15 152/78/15
f 150/73/22 149/154/22 153/80/22 154/162/22 155/155/22 156/158/22
f 147/74/13 150/73/13 156/158/13 157/157/13
f 164/163/63 166/164/63 170/118/64 172/131/64
f 166/164/63 164/163/63 165/165/65 168/166/65
f 168/166/65 165/165/65 163/167/66 167/168/66
f 159/112/67 160/169/67 167/168/66 163/167/66
f 169/170/68 171/171/68 172/131/64 170/118/64
f 171/171/68 169/170/68 162/119/69 161/130/69
