# Blender 5.2.0 LTS
# www.blender.org
o Floor
v -33.191700 -9.999999 -0.000000
v 33.191700 -9.999999 -0.000000
v -33.191700 9.999999 -0.000000
v 33.191700 9.999999 -0.000000
v -33.191700 9.999999 -23.877399
v -33.191700 -9.999999 -23.877399
v 33.191700 -9.999999 -23.877377
v 33.191700 9.999999 -23.877377
v -62.435036 -10.000002 19.452040
v -62.435036 9.999997 19.452040
v -62.435036 -10.000002 -23.877399
v -62.435036 9.999997 -23.877399
v -146.194626 9.999997 19.452040
v -146.194626 -10.000002 19.452040
v -146.194626 9.999997 -23.877399
v -146.194626 -10.000002 -23.877399
v 62.067413 -9.999999 14.663446
v 62.067413 9.999999 14.663446
v 62.067413 -9.999999 -23.877377
v 62.067413 9.999999 -23.877377
v 86.656891 -9.999999 14.663446
v 86.656891 9.999999 14.663446
v 86.656891 -9.999999 -23.877377
v 86.656891 9.999999 -23.877377
v 111.020782 -9.999999 31.582809
v 111.020782 9.999999 31.582809
v 111.020782 -9.999999 -23.877377
v 111.020782 9.999999 -23.877377
v 159.748535 -9.999999 31.582809
v 159.748535 9.999999 31.582809
v 159.748535 -9.999999 -23.877377
v 159.748535 9.999999 -23.877377
v 190.541779 -9.999999 52.638016
v 190.541779 9.999999 52.638016
v 190.541779 -9.999999 -23.877377
v 190.541779 9.999999 -23.877377
v 318.056946 -9.999999 52.638016
v 318.056946 9.999999 52.638016
v 318.056946 -9.999999 -23.877377
v 318.056946 9.999999 -23.877377
v 469.697815 -9.999999 -18.699446
v 469.697815 9.999999 -18.699446
v 469.697815 -9.999999 -23.877377
v 469.697815 9.999999 -23.877377
v 339.719910 9.999999 32.805416
v 361.382904 9.999999 10.255418
v 383.045868 9.999999 -2.386663
v 404.708862 9.999999 -10.398578
v 426.371857 9.999999 -17.973286
v 448.034851 9.999999 -21.702204
v 448.034821 9.999999 -23.877377
v 426.371826 9.999999 -23.877377
v 404.708862 9.999999 -23.877377
v 383.045898 9.999999 -23.877377
v 361.382904 9.999999 -23.877377
v 339.719910 9.999999 -23.877377
v 339.719910 -9.999999 32.805416
v 361.382904 -9.999999 10.255418
v 383.045868 -9.999999 -2.386663
v 404.708862 -9.999999 -10.398578
v 426.371857 -9.999999 -17.973286
v 448.034851 -9.999999 -21.702204
v 339.719910 -9.999999 -23.877377
v 361.382904 -9.999999 -23.877377
v 383.045868 -9.999999 -23.877377
v 404.708862 -9.999999 -23.877377
v 426.371857 -9.999999 -23.877377
v 448.034851 -9.999999 -23.877377
vn -0.0000 -0.0000 1.0000
vn -0.0000 -0.0000 -1.0000
vn -0.0000 -1.0000 -0.0000
vn -0.0000 1.0000 -0.0000
vn -0.4528 -0.0000 0.8916
vn 0.5538 -0.0000 0.8326
vn -1.0000 -0.0000 -0.0000
vn -0.5704 -0.0000 0.8214
vn -0.5644 -0.0000 0.8255
vn 1.0000 -0.0000 -0.0000
vn -0.1373 -0.0000 0.9905
vn 0.6753 -0.0000 0.7376
vn 0.7211 -0.0000 0.6928
vn 0.5040 -0.0000 0.8637
vn 0.3469 -0.0000 0.9379
vn 0.3301 -0.0000 0.9440
vn 0.1696 -0.0000 0.9855
vt 1.000000 0.000000
vt 0.000000 1.000000
vt 0.000000 0.000000
vt 1.000000 1.000000
s 0
f 2/1/1 3/2/1 1/3/1
f 5/2/2 7/1/2 6/3/2
f 1/3/3 11/3/3 6/3/3
f 8/4/4 3/2/4 4/4/4
f 1/3/3 7/1/3 2/1/3
f 2/1/5 18/4/5 4/4/5
f 10/2/6 1/3/6 3/2/6
f 11/3/2 15/2/2 12/2/2
f 3/2/4 12/2/4 10/2/4
f 11/3/2 5/2/2 6/3/2
f 15/2/7 14/3/7 13/2/7
f 9/3/3 16/3/3 11/3/3
f 10/2/1 14/3/1 9/3/1
f 12/2/4 13/2/4 10/2/4
f 19/1/3 21/1/3 17/1/3
f 2/1/3 19/1/3 17/1/3
f 4/4/4 20/4/4 8/4/4
f 8/4/2 19/1/2 7/1/2
f 24/4/2 27/1/2 23/1/2
f 20/4/2 23/1/2 19/1/2
f 18/4/4 24/4/4 20/4/4
f 17/1/1 22/4/1 18/4/1
f 26/4/4 32/4/4 28/4/4
f 22/4/4 28/4/4 24/4/4
f 21/1/8 26/4/8 22/4/8
f 21/1/3 27/1/3 25/1/3
f 29/1/3 35/1/3 33/1/3
f 25/1/1 30/4/1 26/4/1
f 27/1/3 29/1/3 25/1/3
f 28/4/2 31/1/2 27/1/2
f 34/4/4 40/4/4 36/4/4
f 32/4/2 35/1/2 31/1/2
f 30/4/4 36/4/4 32/4/4
f 29/1/9 34/4/9 30/4/9
f 50/4/4 44/4/4 51/4/4
f 33/1/1 38/4/1 34/4/1
f 35/1/3 37/1/3 33/1/3
f 36/4/2 39/1/2 35/1/2
f 43/1/10 42/4/10 41/1/10
f 62/1/11 42/4/11 50/4/11
f 62/1/3 43/1/3 41/1/3
f 68/1/2 44/4/2 43/1/2
f 40/4/2 63/1/2 39/1/2
f 56/4/2 64/1/2 63/1/2
f 55/4/2 65/1/2 64/1/2
f 54/4/2 66/1/2 65/1/2
f 66/1/2 52/4/2 67/1/2
f 67/1/2 51/4/2 68/1/2
f 39/1/3 57/1/3 37/1/3
f 63/1/3 58/1/3 57/1/3
f 64/1/3 59/1/3 58/1/3
f 65/1/3 60/1/3 59/1/3
f 66/1/3 61/1/3 60/1/3
f 67/1/3 62/1/3 61/1/3
f 37/1/12 45/4/12 38/4/12
f 57/1/13 46/4/13 45/4/13
f 58/1/14 47/4/14 46/4/14
f 59/1/15 48/4/15 47/4/15
f 60/1/16 49/4/16 48/4/16
f 61/1/17 50/4/17 49/4/17
f 40/4/4 45/4/4 56/4/4
f 56/4/4 46/4/4 55/4/4
f 55/4/4 47/4/4 54/4/4
f 54/4/4 48/4/4 53/4/4
f 53/4/4 49/4/4 52/4/4
f 52/4/4 50/4/4 51/4/4
f 2/1/1 4/4/1 3/2/1
f 5/2/2 8/4/2 7/1/2
f 1/3/3 9/3/3 11/3/3
f 8/4/4 5/2/4 3/2/4
f 1/3/3 6/3/3 7/1/3
f 2/1/5 17/1/5 18/4/5
f 10/2/6 9/3/6 1/3/6
f 11/3/2 16/3/2 15/2/2
f 3/2/4 5/2/4 12/2/4
f 11/3/2 12/2/2 5/2/2
f 15/2/7 16/3/7 14/3/7
f 9/3/3 14/3/3 16/3/3
f 10/2/1 13/2/1 14/3/1
f 12/2/4 15/2/4 13/2/4
f 19/1/3 23/1/3 21/1/3
f 2/1/3 7/1/3 19/1/3
f 4/4/4 18/4/4 20/4/4
f 8/4/2 20/4/2 19/1/2
f 24/4/2 28/4/2 27/1/2
f 20/4/2 24/4/2 23/1/2
f 18/4/4 22/4/4 24/4/4
f 17/1/1 21/1/1 22/4/1
f 26/4/4 30/4/4 32/4/4
f 22/4/4 26/4/4 28/4/4
f 21/1/8 25/1/8 26/4/8
f 21/1/3 23/1/3 27/1/3
f 29/1/3 31/1/3 35/1/3
f 25/1/1 29/1/1 30/4/1
f 27/1/3 31/1/3 29/1/3
f 28/4/2 32/4/2 31/1/2
f 34/4/4 38/4/4 40/4/4
f 32/4/2 36/4/2 35/1/2
f 30/4/4 34/4/4 36/4/4
f 29/1/9 33/1/9 34/4/9
f 50/4/4 42/4/4 44/4/4
f 33/1/1 37/1/1 38/4/1
f 35/1/3 39/1/3 37/1/3
f 36/4/2 40/4/2 39/1/2
f 43/1/10 44/4/10 42/4/10
f 62/1/11 41/1/11 42/4/11
f 62/1/3 68/1/3 43/1/3
f 68/1/2 51/4/2 44/4/2
f 40/4/2 56/4/2 63/1/2
f 56/4/2 55/4/2 64/1/2
f 55/4/2 54/4/2 65/1/2
f 54/4/2 53/4/2 66/1/2
f 66/1/2 53/4/2 52/4/2
f 67/1/2 52/4/2 51/4/2
f 39/1/3 63/1/3 57/1/3
f 63/1/3 64/1/3 58/1/3
f 64/1/3 65/1/3 59/1/3
f 65/1/3 66/1/3 60/1/3
f 66/1/3 67/1/3 61/1/3
f 67/1/3 68/1/3 62/1/3
f 37/1/12 57/1/12 45/4/12
f 57/1/13 58/1/13 46/4/13
f 58/1/14 59/1/14 47/4/14
f 59/1/15 60/1/15 48/4/15
f 60/1/16 61/1/16 49/4/16
f 61/1/17 62/1/17 50/4/17
f 40/4/4 38/4/4 45/4/4
f 56/4/4 45/4/4 46/4/4
f 55/4/4 46/4/4 47/4/4
f 54/4/4 47/4/4 48/4/4
f 53/4/4 48/4/4 49/4/4
f 52/4/4 49/4/4 50/4/4
